<svg width="80" height="79" viewBox="0 0 80 79" fill="none" xmlns="http://www.w3.org/2000/svg">
<g clip-path="url(#clip0)">
<ellipse cx="45.8536" cy="45.1575" rx="25.3659" ry="24.9104" fill="#00B4FD"/>
<path d="M70.4688 22.0696C70.4688 22.9171 69.7693 23.604 68.9063 23.604C68.0432 23.604 67.3438 22.9171 67.3438 22.0696C67.3438 21.2221 68.0432 20.5352 68.9063 20.5352C69.7693 20.5352 70.4688 21.2221 70.4688 22.0696Z" fill="#00B4FD"/>
<path d="M71.9232 25.5976C71.2091 26.0735 71.0223 27.0271 71.507 27.729C75.0189 32.8137 76.875 38.7627 76.875 44.9328C76.875 61.8549 62.8564 75.6218 45.625 75.6218C28.3936 75.6218 14.375 61.8549 14.375 44.9328C14.375 41.1093 15.0806 37.3924 16.4691 33.8686C16.7078 33.8782 16.947 33.8848 17.1875 33.8848C18.1177 33.8848 19.0375 33.8117 19.9414 33.669C18.338 37.194 17.5 41.0272 17.5 44.9328C17.5 60.1796 30.0824 72.5529 45.625 72.5529C61.0541 72.5529 73.75 60.2905 73.75 44.9328C73.75 37.5567 70.8246 30.6205 65.5127 25.4022C60.199 20.1857 53.136 17.3128 45.625 17.3128C41.6479 17.3128 37.7448 18.1357 34.1553 19.7109C34.3005 18.8226 34.375 17.9193 34.375 17.0059C34.375 16.7709 34.3683 16.5354 34.3585 16.3004C37.9443 14.9368 41.7285 14.2439 45.625 14.2439C51.908 14.2439 57.9657 16.0666 63.1433 19.5155C63.855 19.9891 64.8273 19.811 65.3137 19.1067C65.7983 18.4055 65.6116 17.4512 64.8981 16.9759C59.2004 13.1805 52.536 11.175 45.625 11.175C41.593 11.175 37.6691 11.8499 33.9313 13.1799C32.1576 5.615 25.282 0.126953 17.1875 0.126953C7.71057 0.126953 0 7.69909 0 17.0059C0 24.952 5.59265 31.709 13.2916 33.449C11.9373 37.1215 11.25 40.9756 11.25 44.9328C11.25 63.5901 26.6241 78.6907 45.625 78.6907C64.6234 78.6907 80 63.5925 80 44.9328C80 38.1459 77.9578 31.6011 74.093 26.0058C73.6084 25.3045 72.6373 25.1223 71.9232 25.5976ZM32.9309 23.7814C36.3177 21.8172 40.1288 20.6718 44.0625 20.4314V24.985C44.0625 25.8325 44.762 26.5194 45.625 26.5194C46.488 26.5194 47.1875 25.8325 47.1875 24.985V20.4302C52.7582 20.7659 57.981 22.8901 62.1631 26.5218L58.8824 29.743C58.2727 30.3424 58.2727 31.314 58.8824 31.9134C59.4934 32.5128 60.4822 32.5122 61.0925 31.9134L64.3726 28.6922C68.0707 32.7993 70.2338 37.9277 70.5756 43.3984H65.9375C65.0745 43.3984 64.375 44.0859 64.375 44.9328C64.375 45.7804 65.0745 46.4661 65.9375 46.4661H70.5756C70.2338 51.9367 68.0707 57.0669 64.3726 61.174L61.0925 57.9528C60.4822 57.3534 59.4928 57.3534 58.8824 57.9528C58.2721 58.5516 58.2721 59.5233 58.8824 60.1226L62.1625 63.3438C57.9803 66.9761 52.7582 69.1004 47.1875 69.4354V64.8806C47.1875 64.0331 46.4874 63.3462 45.625 63.3462C44.762 63.3462 44.0625 64.0331 44.0625 64.8806V69.4354C38.4918 69.0998 33.269 66.9755 29.0869 63.3438L32.3669 60.1226C32.9773 59.5233 32.9773 58.5516 32.3669 57.9522C31.7572 57.3534 30.7678 57.3534 30.1575 57.9522L26.8774 61.1734C23.1787 57.0663 21.0156 51.9379 20.6744 46.4673H25.3125C26.1755 46.4673 26.875 45.7798 26.875 44.9328C26.875 44.0853 26.1755 43.3984 25.3125 43.3984H20.6757C20.9204 39.5347 22.0868 35.7927 24.0869 32.4666C28.0231 30.7703 31.2048 27.6457 32.9309 23.7814ZM3.125 17.0059C3.125 9.39118 9.43359 3.19585 17.1875 3.19585C24.9579 3.19585 31.25 9.34862 31.25 17.0059C31.25 24.6613 24.9188 30.8159 17.1875 30.8159C9.40735 30.8159 3.125 24.6487 3.125 17.0059Z" fill="#00B4FD"/>
<path d="M43.6738 51.2576H56.1738C57.0369 51.2576 57.7363 50.5707 57.7363 49.7231C57.7363 48.8756 57.0369 48.1887 56.1738 48.1887H45.2363V37.4475C45.2363 36.6 44.5369 35.9131 43.6738 35.9131C42.8108 35.9131 42.1113 36.6 42.1113 37.4475V49.7231C42.1113 50.5707 42.8108 51.2576 43.6738 51.2576Z" fill="white"/>
<path d="M10.9375 9.3335C10.0745 9.3335 9.375 10.0204 9.375 10.8679V23.1435C9.375 23.9911 10.0745 24.678 10.9375 24.678C11.8005 24.678 12.5 23.9911 12.5 23.1435V10.8679C12.5 10.0204 11.8005 9.3335 10.9375 9.3335Z" fill="#00B4FD"/>
<path d="M20.3125 24.678C22.8973 24.678 25 22.6131 25 20.0746V13.9368C25 11.3936 22.9022 9.3335 20.3125 9.3335C17.7277 9.3335 15.625 11.3984 15.625 13.9368V20.0746C15.625 22.6131 17.7277 24.678 20.3125 24.678ZM18.75 13.9368C18.75 13.0905 19.4507 12.4024 20.3125 12.4024C21.1749 12.4024 21.875 13.0893 21.875 13.9368V20.0746C21.875 20.921 21.1743 21.6091 20.3125 21.6091C19.4507 21.6091 18.75 20.921 18.75 20.0746V13.9368Z" fill="#00B4FD"/>
</g>
<defs>
<clipPath id="clip0">
<rect y="0.126953" width="80" height="78.5637" fill="white"/>
</clipPath>
</defs>
</svg>
