<svg width="24" height="17" viewBox="0 0 24 17" fill="none" xmlns="http://www.w3.org/2000/svg">
<path d="M9.48396 17L7.49683 13.2941L9.84525 8.89339L7.49683 4.26104L9.48396 0.477961L14.0724 8.89339L9.48396 17Z" fill="#444444"/>
<path d="M18.7332 17L16.7461 13.2941L19.0945 8.89339L16.7461 4.26104L18.7332 0.477961L23.3217 8.89339L18.7332 17Z" fill="#FB9805"/>
<path d="M5.5097 17L7.49683 13.2941L5.1484 8.89339L7.49683 4.26104L5.5097 0.477961L0.92123 8.89339L5.5097 17Z" fill="#444444"/>
<path d="M11.3626 4.33789H16.7821L18.7331 0.4776H9.48389L11.3626 4.33789Z" fill="#FB9805"/>
<path d="M11.3626 13.1392H16.7821L18.7331 16.9995H9.48389L11.3626 13.1392Z" fill="#FB9805"/>
</svg>
