<svg width="28" height="22" viewBox="0 0 28 22" fill="none" xmlns="http://www.w3.org/2000/svg">
<path d="M17.5 16.7614H15.1844V9.48074C15.1844 9.34853 15.0719 9.24036 14.9344 9.24036H13.0594C12.9219 9.24036 12.8094 9.34853 12.8094 9.48074V16.7614H10.5C10.2906 16.7614 10.175 16.9928 10.3031 17.149L13.8031 21.4068C13.8265 21.4356 13.8564 21.4588 13.8905 21.4748C13.9246 21.4908 13.9621 21.4991 14 21.4991C14.038 21.4991 14.0754 21.4908 14.1095 21.4748C14.1436 21.4588 14.1735 21.4356 14.1969 21.4068L17.6969 17.149C17.825 16.9928 17.7094 16.7614 17.5 16.7614Z" fill="white"/>
<path d="M23.3563 6.55713C21.925 2.92732 18.2781 0.346191 14.0063 0.346191C9.73438 0.346191 6.0875 2.92432 4.65625 6.55412C1.97813 7.23021 0 9.57696 0 12.3654C0 15.6857 2.79687 18.375 6.24687 18.375H7.5C7.6375 18.375 7.75 18.2669 7.75 18.1347V16.3318C7.75 16.1996 7.6375 16.0914 7.5 16.0914H6.24687C5.19375 16.0914 4.20312 15.6887 3.46562 14.9586C2.73125 14.2314 2.34063 13.2518 2.375 12.2362C2.40313 11.4429 2.68437 10.6978 3.19375 10.0697C3.71562 9.42973 4.44688 8.96398 5.25938 8.75665L6.44375 8.45917L6.87813 7.35941C7.14688 6.67432 7.52187 6.03429 7.99375 5.45436C8.4596 4.87957 9.01142 4.37429 9.63125 3.95497C10.9156 3.08658 12.4281 2.62684 14.0063 2.62684C15.5844 2.62684 17.0969 3.08658 18.3813 3.95497C19.0031 4.37564 19.5531 4.88045 20.0187 5.45436C20.4906 6.03429 20.8656 6.67732 21.1344 7.35941L21.5656 8.45617L22.7469 8.75665C24.4406 9.19535 25.625 10.6767 25.625 12.3654C25.625 13.36 25.2219 14.2975 24.4906 15.0006C24.132 15.3475 23.7054 15.6225 23.2355 15.8097C22.7656 15.9969 22.2618 16.0927 21.7531 16.0914H20.5C20.3625 16.0914 20.25 16.1996 20.25 16.3318V18.1347C20.25 18.2669 20.3625 18.375 20.5 18.375H21.7531C25.2031 18.375 28 15.6857 28 12.3654C28 9.57997 26.0281 7.23622 23.3563 6.55713Z" fill="white"/>
</svg>
