<svg width="80" height="79" viewBox="0 0 80 79" fill="none" xmlns="http://www.w3.org/2000/svg">
<g clip-path="url(#clip0)">
<path d="M74.4828 35.0831V12.1912C74.4746 11.7742 74.2758 11.383 73.9416 11.1256C73.6074 10.8683 73.173 10.7721 72.7587 10.8638C56.6373 14.3585 44.4966 3.71177 41.0208 0.406675C40.4521 -0.134907 39.5481 -0.134907 38.9794 0.406675C35.5035 3.71177 23.3615 14.3585 7.24147 10.8638C6.82714 10.7721 6.3928 10.8683 6.05857 11.1256C5.72433 11.383 5.5256 11.7742 5.51733 12.1912V35.0831C5.51733 56.3576 20.0111 68.7923 39.3339 78.4069C39.7523 78.6167 40.2479 78.6167 40.6663 78.4069C60.0166 68.7788 74.4828 56.3061 74.4828 35.0831ZM57.5559 20.1262L59.5063 18.2108C59.8526 17.8587 60.3654 17.7175 60.8477 17.8415C61.3299 17.9654 61.7065 18.3353 61.8328 18.8089C61.959 19.2824 61.8152 19.7861 61.4566 20.1262L59.5063 22.0415C58.9651 22.5548 58.1048 22.5475 57.5727 22.025C57.0407 21.5025 57.0332 20.6577 57.5559 20.1262ZM48.7546 14.9857L49.8097 12.4838C50.1011 11.7926 50.9079 11.4642 51.6118 11.7503C52.3157 12.0365 52.6501 12.8288 52.3587 13.52L51.3104 16.0232C51.1217 16.4704 50.7044 16.7847 50.2157 16.8478C49.727 16.9108 49.2412 16.7131 48.9412 16.329C48.6412 15.9449 48.5727 15.4328 48.7615 14.9857H48.7546ZM38.6208 10.8367C38.6208 10.0886 39.2383 9.48214 40.0001 9.48214C40.7619 9.48214 41.3794 10.0886 41.3794 10.8367V13.5458C41.3794 14.2939 40.7619 14.9003 40.0001 14.9003C39.2383 14.9003 38.6208 14.2939 38.6208 13.5458V10.8367ZM28.3877 11.751C28.7257 11.6133 29.1055 11.6132 29.4436 11.7506C29.7818 11.8881 30.0504 12.1518 30.1904 12.4838L31.2456 14.9857C31.4343 15.4328 31.3658 15.9449 31.0659 16.329C30.7659 16.7131 30.2801 16.9108 29.7914 16.8478C29.3027 16.7847 28.8854 16.4704 28.6966 16.0232L27.6415 13.52C27.3504 12.8292 27.6844 12.0374 28.3877 11.751ZM18.5435 18.2108C19.0822 17.682 19.9553 17.682 20.4939 18.2108L22.4442 20.1262C22.8028 20.4663 22.9466 20.9699 22.8204 21.4435C22.6941 21.9171 22.3175 22.2869 21.8353 22.4109C21.353 22.5348 20.8402 22.3936 20.4939 22.0415L18.5435 20.1262C18.0051 19.5972 18.0051 18.7398 18.5435 18.2108ZM11.9656 27.8782C12.2572 27.1876 13.0635 26.8596 13.767 27.1454L16.316 28.1817C16.9242 28.4289 17.2698 29.0637 17.1413 29.6977C17.0128 30.3317 16.4459 30.7882 15.7877 30.7878C15.3973 30.7878 15.4042 30.7431 12.7118 29.6486C12.3737 29.5111 12.1052 29.2473 11.9652 28.9153C11.8253 28.5832 11.8254 28.2102 11.9656 27.8782ZM16.316 50.3895C13.5173 51.5273 13.6015 51.53 13.2401 51.53C12.5805 51.5319 12.0118 51.0751 11.8831 50.4398C11.7544 49.8045 12.1017 49.1686 12.7118 48.9225L15.2594 47.8862C15.9633 47.5997 16.7704 47.9278 17.0622 48.6191C17.3539 49.3103 17.0198 50.1029 16.316 50.3895ZM22.4442 58.4449C20.3228 60.5282 20.2442 60.7571 19.5187 60.7571C18.9609 60.757 18.4581 60.427 18.2447 59.9209C18.0312 59.4148 18.1492 58.8323 18.5435 58.4449L20.4939 56.5296C21.0351 56.0163 21.8954 56.0236 22.4274 56.5461C22.9595 57.0686 22.9669 57.9134 22.4442 58.4449ZM31.2456 63.5854L30.1904 66.0873C30.0019 66.5344 29.5849 66.8489 29.0963 66.9121C28.6077 66.9754 28.1219 66.7779 27.8218 66.394C27.5217 66.0102 27.453 65.4982 27.6415 65.0511L28.6966 62.5479C28.8854 62.1007 29.3027 61.7864 29.7914 61.7233C30.2801 61.6603 30.7659 61.858 31.0659 62.2421C31.3658 62.6262 31.4343 63.1383 31.2456 63.5854ZM41.3794 67.7276C41.3794 68.4757 40.7619 69.0822 40.0001 69.0822C39.2383 69.0822 38.6208 68.4757 38.6208 67.7276V65.0186C38.6208 64.2705 39.2383 63.664 40.0001 63.664C40.7619 63.664 41.3794 64.2705 41.3794 65.0186V67.7276ZM51.6125 66.8133C51.2745 66.951 50.8946 66.9511 50.5565 66.8137C50.2184 66.6763 49.9498 66.4125 49.8097 66.0805L48.7546 63.5787C48.4628 62.8874 48.7969 62.0948 49.5008 61.8083C50.2047 61.5218 51.0118 61.8498 51.3035 62.5411L52.3587 65.0443C52.6497 65.7352 52.3157 66.5269 51.6125 66.8133ZM40.0001 60.9549C29.8854 60.947 21.0673 54.1959 18.5918 44.5649C18.2342 43.0295 18.0587 41.4586 18.0691 39.8836L16.9822 41.6635C16.5738 42.2666 15.7545 42.4475 15.1225 42.0741C14.4905 41.7007 14.2695 40.9051 14.6208 40.2683L17.5366 35.4894C17.9106 34.8777 18.5839 34.5035 19.3104 34.5035C20.037 34.5035 20.7102 34.8777 21.0842 35.4894L24.0001 40.2683C24.2536 40.6832 24.2625 41.1995 24.0233 41.6226C23.7841 42.0458 23.3332 42.3114 22.8405 42.3196C22.3478 42.3277 21.8881 42.0771 21.6346 41.6621L20.836 40.355C21.3035 50.4012 29.7596 58.2955 40.0001 58.2458C47.9667 58.2113 55.1052 53.4059 58.0111 46.1213C58.2918 45.4321 59.0849 45.0931 59.7898 45.3611C60.4946 45.629 60.8486 46.4041 60.5835 47.0993C57.2635 55.4249 49.1048 60.9169 40.0001 60.9549ZM36.7008 32.6083C35.5558 31.3526 33.7889 30.8362 32.1311 31.2727C30.3264 31.6673 29.0235 33.2128 28.9656 35.0275C28.9986 35.5115 28.7662 35.9759 28.356 36.246C27.9457 36.516 27.4199 36.5506 26.9767 36.3367C26.5334 36.1228 26.24 35.693 26.207 35.209C26.3601 27.8349 35.7973 26.5142 38.9766 31.079C40.2515 33.0178 40.2596 35.5082 38.9973 37.4549C37.3794 40.0786 34.1697 41.2476 31.3518 43.7468C30.5593 44.4001 29.883 45.1783 29.3504 46.0495H38.6208C39.3825 46.0495 40.0001 46.6559 40.0001 47.404C40.0001 48.1521 39.3825 48.7586 38.6208 48.7586H27.5863C26.8245 48.7586 26.207 48.1521 26.207 47.404C26.207 43.8172 30.1408 41.0634 33.1477 39.0356C34.5014 38.2805 35.6879 37.2673 36.6373 36.0556C37.3407 35.0169 37.3655 33.6714 36.7008 32.6083ZM55.1725 40.6367C55.9343 40.6367 56.5518 41.2432 56.5518 41.9913C56.5518 42.7394 55.9343 43.3458 55.1725 43.3458H52.4139V47.4094C52.4139 48.1575 51.7963 48.764 51.0346 48.764C50.2728 48.764 49.6553 48.1575 49.6553 47.4094V43.3458H41.3794C40.8524 43.3462 40.3713 43.0516 40.1396 42.5868C39.9079 42.1219 39.9662 41.5681 40.2897 41.1596L49.9449 28.9686C50.3065 28.5111 50.9243 28.33 51.4821 28.5179C52.0399 28.7058 52.4144 29.2212 52.4139 29.8003V40.6367H55.1725ZM61.4566 60.3535C60.918 60.8823 60.0449 60.8823 59.5063 60.3535L57.5559 58.4382C57.0332 57.9067 57.0407 57.0618 57.5727 56.5393C58.1048 56.0168 58.9651 56.0095 59.5063 56.5228L61.4566 58.4382C61.9951 58.9671 61.9951 59.8245 61.4566 60.3535ZM58.9159 41.7203L56.0001 36.9415C55.6081 36.3 55.82 35.468 56.4732 35.0831C57.1264 34.6982 57.9737 34.9062 58.3656 35.5477L58.8884 36.4024C57.6777 27.1018 49.5467 20.178 40.0001 20.3185C32.4826 20.3368 25.6545 24.6241 22.4828 31.3174C22.2857 31.7718 21.8523 32.0848 21.3519 32.1342C20.8515 32.1836 20.3634 31.9616 20.0781 31.5549C19.7928 31.1482 19.7555 30.6212 19.9808 30.1796C23.6047 22.5296 31.4085 17.6296 40.0001 17.6094C51.527 17.4898 61.1138 26.2894 61.7697 37.5917L63.018 35.5477C63.258 35.1064 63.7262 34.831 64.2356 34.8314C64.7451 34.8317 65.2128 35.1078 65.4522 35.5494C65.6915 35.9911 65.6636 36.5263 65.3794 36.9415L62.4635 41.7203C62.0895 42.332 61.4163 42.7063 60.6897 42.7063C59.9632 42.7063 59.2899 42.332 58.9159 41.7203ZM68.0346 50.6847C67.7429 51.3754 66.9367 51.7034 66.2332 51.4175L63.6842 50.3895C62.9803 50.1029 62.6463 49.3103 62.938 48.6191C63.2298 47.9278 64.0369 47.5997 64.7408 47.8862L67.2884 48.9225C67.9886 49.2089 68.3219 49.9967 68.0346 50.6861V50.6847ZM67.2884 29.6473C64.4897 30.7851 64.5739 30.7864 64.2125 30.7864C63.5542 30.7868 62.9874 30.3304 62.8589 29.6964C62.7304 29.0623 63.076 28.4275 63.6842 28.1803L66.2332 27.1441C66.9371 26.8579 67.7439 27.1863 68.0353 27.8776C68.3266 28.5688 67.9922 29.3611 67.2884 29.6473Z" fill="#FB9805"/>
<path d="M49.6552 40.6369V33.749L44.1987 40.6369H49.6552Z" fill="#FB9805"/>
</g>
<defs>
<clipPath id="clip0">
<rect width="80" height="78.5637" fill="white"/>
</clipPath>
</defs>
</svg>
