<svg width="16" height="14" viewBox="0 0 16 14" fill="none" xmlns="http://www.w3.org/2000/svg">
<path d="M1.25 5.40625C1.92309 5.40625 2.46875 4.86059 2.46875 4.1875V3.375H0.03125V4.1875C0.03125 4.86059 0.576906 5.40625 1.25 5.40625Z" fill="#B9C224"/>
<path d="M4.625 5.40625C5.29809 5.40625 5.84375 4.86059 5.84375 4.1875V3.375H3.40625V4.1875C3.40625 4.86059 3.95191 5.40625 4.625 5.40625Z" fill="#B9C224"/>
<path d="M8 5.40625C8.67309 5.40625 9.21875 4.86059 9.21875 4.1875V3.375H6.78125V4.1875C6.78125 4.86059 7.32691 5.40625 8 5.40625Z" fill="#B9C224"/>
<path d="M11.375 5.40625C12.0481 5.40625 12.5938 4.86059 12.5938 4.1875V3.375H10.1562V4.1875C10.1562 4.86059 10.7019 5.40625 11.375 5.40625Z" fill="#B9C224"/>
<path d="M13.5312 4.1875C13.5312 4.86059 14.0769 5.40625 14.75 5.40625C15.4231 5.40625 15.9688 4.86059 15.9688 4.1875V3.375H13.5312V4.1875Z" fill="#B9C224"/>
<path d="M8.625 8.0625H12.6875V10.5625H8.625V8.0625Z" fill="#B9C224"/>
<path d="M3.3125 14H5.5V11.1875H5.03125C4.77237 11.1875 4.5625 10.9776 4.5625 10.7188C4.5625 10.4599 4.77237 10.25 5.03125 10.25H5.5V8.0625H3.3125V14Z" fill="#B9C224"/>
<path d="M15.5312 13.0624H15.0625V6.32059C14.9605 6.33566 14.8562 6.34366 14.75 6.34366C14.0672 6.34366 13.4579 6.02422 13.0625 5.52734C12.6671 6.02422 12.0578 6.34366 11.375 6.34366C10.6922 6.34366 10.0829 6.02422 9.6875 5.52734C9.29212 6.02422 8.68284 6.34366 8 6.34366C7.31716 6.34366 6.70788 6.02422 6.3125 5.52734C5.91712 6.02422 5.30784 6.34366 4.625 6.34366C3.94216 6.34366 3.33288 6.02422 2.9375 5.52734C2.54212 6.02422 1.93284 6.34366 1.25 6.34366C1.14384 6.34366 1.03953 6.33566 0.9375 6.32059V13.0624H0.46875C0.209875 13.0624 0 13.2723 0 13.5312C0 13.79 0.209875 13.9999 0.46875 13.9999H2.375V7.59366C2.375 7.33478 2.58488 7.12491 2.84375 7.12491H5.96875C6.22762 7.12491 6.4375 7.33478 6.4375 7.59366V13.9999H15.5312C15.7901 13.9999 16 13.79 16 13.5312C16 13.2723 15.7901 13.0624 15.5312 13.0624ZM13.625 11.0312C13.625 11.29 13.4151 11.4999 13.1562 11.4999H8.15625C7.89738 11.4999 7.6875 11.29 7.6875 11.0312V7.59366C7.6875 7.33478 7.89738 7.12491 8.15625 7.12491H13.1562C13.4151 7.12491 13.625 7.33478 13.625 7.59366V11.0312Z" fill="#B9C224"/>
<path d="M1 0H15L16 3H0L1 0Z" fill="#B9C224"/>
</svg>
