<svg width="16" height="16" viewBox="0 0 16 16" fill="none" xmlns="http://www.w3.org/2000/svg">
<path d="M13.3333 2.6665H2.66659C1.93325 2.6665 1.33325 3.2665 1.33325 3.99984V11.9998C1.33325 12.7332 1.93325 13.3332 2.66659 13.3332H13.3333C14.0666 13.3332 14.6666 12.7332 14.6666 11.9998V3.99984C14.6666 3.2665 14.0666 2.6665 13.3333 2.6665ZM13.0666 5.49984L8.70659 8.2265C8.27325 8.49984 7.72659 8.49984 7.29325 8.2265L2.93325 5.49984C2.8664 5.46231 2.80786 5.41161 2.76118 5.35081C2.71449 5.29 2.68063 5.22036 2.66164 5.14608C2.64264 5.07181 2.63892 4.99446 2.65069 4.91871C2.66246 4.84296 2.68948 4.77038 2.73011 4.70537C2.77074 4.64036 2.82413 4.58427 2.88707 4.5405C2.95 4.49673 3.02117 4.46618 3.09625 4.4507C3.17133 4.43523 3.24877 4.43515 3.32389 4.45047C3.399 4.46579 3.47023 4.49619 3.53325 4.53984L7.99992 7.33317L12.4666 4.53984C12.5296 4.49619 12.6008 4.46579 12.6759 4.45047C12.7511 4.43515 12.8285 4.43523 12.9036 4.4507C12.9787 4.46618 13.0498 4.49673 13.1128 4.5405C13.1757 4.58427 13.2291 4.64036 13.2697 4.70537C13.3104 4.77038 13.3374 4.84296 13.3491 4.91871C13.3609 4.99446 13.3572 5.07181 13.3382 5.14608C13.3192 5.22036 13.2853 5.29 13.2387 5.35081C13.192 5.41161 13.1334 5.46231 13.0666 5.49984Z" fill="#FB9805"/>
</svg>
