<svg width="80" height="80" viewBox="0 0 80 80" fill="none" xmlns="http://www.w3.org/2000/svg">
<g clip-path="url(#clip0)">
<path d="M40.0002 16.522C26.8363 16.522 16.1414 27.0423 16.1414 39.9524C16.1414 52.8618 26.854 63.3822 40.0002 63.3822C53.1456 63.3822 63.8583 52.8618 63.8583 39.9524C63.8583 27.0423 53.164 16.522 40.0002 16.522ZM51.9654 34.3356L37.5667 47.6727C37.3007 47.929 36.9411 48.0704 36.5681 48.0655C36.178 48.069 35.8035 47.9144 35.5332 47.6372L27.9981 40.0416C27.4463 39.4788 27.4583 38.5837 28.0264 38.0363C28.5938 37.4888 29.5045 37.4923 30.0684 38.0439L36.6049 44.6414L49.9681 32.2669C50.5497 31.725 51.4682 31.7494 52.02 32.3206C52.5718 32.8917 52.547 33.7937 51.9654 34.3356Z" fill="#B9C224"/>
<path d="M74.2623 48.4932L80.0002 39.9524L74.2623 31.4109C74.0942 31.1574 74.0113 30.8579 74.0262 30.5549L74.607 20.3201L65.3292 15.7021C65.0547 15.5663 64.832 15.3476 64.6937 15.0781L60.009 5.9661L49.5872 6.53655C49.2787 6.55118 48.9737 6.47038 48.7155 6.30461L40.0001 0.67041L31.3025 6.30461C31.0443 6.47038 30.7393 6.55118 30.4315 6.53655L20.0089 5.9661L15.3065 15.0781C15.1682 15.3476 14.9455 15.5663 14.671 15.7021L5.3925 20.302L5.97339 30.5375C5.98828 30.8397 5.90601 31.1393 5.73791 31.3935L0 39.9524L5.73791 48.4932C5.90601 48.7474 5.98828 49.0462 5.97339 49.3492L5.3925 59.584L14.671 64.1845C14.9455 64.3204 15.1682 64.5391 15.3065 64.8086L19.9912 73.9206L30.4131 73.3494H30.4854C30.7684 73.3529 31.0457 73.433 31.2847 73.5814L39.9817 79.2163L48.6793 73.5814C48.9375 73.4163 49.2425 73.3355 49.5503 73.3494L59.9729 73.9206L64.6575 64.8086C64.7958 64.5391 65.0186 64.3204 65.293 64.1845L74.5709 59.584L73.99 49.3492C74.0056 49.0455 74.0992 48.7509 74.2623 48.4932ZM40.0001 66.2351C25.2383 66.2351 13.2362 54.4485 13.2362 39.9524C13.2362 25.4556 25.2383 13.669 40.0001 13.669C54.7619 13.669 66.7633 25.4556 66.7633 39.9524C66.7633 54.4485 54.7619 66.2351 40.0001 66.2351Z" fill="#B9C224"/>
</g>
<defs>
<clipPath id="clip0">
<rect y="0.563477" width="80" height="78.5637" fill="white"/>
</clipPath>
</defs>
</svg>
