<svg width="24" height="24" viewBox="0 0 24 24" fill="none" xmlns="http://www.w3.org/2000/svg">
<g clip-path="url(#clip0)">
<path d="M0.317159 18.4188C5.07276 23.1744 4.61476 22.7388 4.65476 22.7568L5.58116 23.6828C6.00272 24.1034 6.68519 24.1034 7.10676 23.6828L11.8188 18.9708C11.9304 19.2668 11.6708 18.9736 16.644 23.4612C17.5336 24.264 19.1612 23.9856 19.9264 23.138L23.4768 19.2028C24.2233 18.2959 24.0947 16.9558 23.1892 16.2076L18.6644 12.1252L23.6828 7.10679C24.1034 6.68523 24.1034 6.00276 23.6828 5.58119L18.4188 0.317195C17.9916 -0.0896623 17.3203 -0.0896623 16.8932 0.317195L11.2368 5.97359L5.19556 0.221995C4.87345 -0.0847902 4.36402 -0.0737077 4.05556 0.246795L1.42156 2.98439C1.27184 3.1434 1.19203 3.35574 1.19996 3.57399L1.30396 5.90319C1.32203 6.23817 1.54472 6.52734 1.86396 6.63039L3.98636 7.28519L4.08236 9.50719C4.09786 9.84483 4.32448 10.136 4.64796 10.234L6.42156 10.7864L0.317159 16.8932C-0.103441 17.3148 -0.103441 17.9972 0.317159 18.4188ZM6.54116 23.1172C6.43039 23.2215 6.25752 23.2215 6.14676 23.1172L5.48636 22.4564L8.29156 19.474C8.38945 19.3698 8.42433 19.2213 8.38305 19.0845C8.34177 18.9476 8.23062 18.8431 8.09145 18.8105C7.95228 18.7778 7.80625 18.8218 7.70836 18.926L4.91996 21.8904L3.79756 20.768L5.08276 19.4828C5.23435 19.3258 5.23218 19.0764 5.07789 18.9221C4.92359 18.7678 4.67411 18.7656 4.51716 18.9172L3.23196 20.2024L2.09196 19.0624C3.07682 18.1299 4.44613 17.7207 5.78116 17.96C7.1722 18.2082 8.60369 17.8641 9.72996 17.0108C9.82268 17.2178 9.99796 17.3764 10.2132 17.448L11.6736 17.902C11.686 18.016 12.0852 17.5732 6.54116 23.1172ZM22.8828 18.6668L19.3324 22.602C18.8484 23.1388 17.738 23.3712 17.18 22.8672L12.59 18.7252C12.5472 18.6872 12.5728 18.79 12.4048 17.2084L17.19 11.9004C17.238 11.9004 16.8784 11.5912 22.6532 16.8016C23.2267 17.256 23.329 18.0868 22.8828 18.6668ZM23.2 6.34399C23.2 6.51039 23.5876 6.07279 18.0716 11.5888C17.7628 11.3088 17.5864 11.1016 17.1996 11.1C17.0434 11.1004 16.8907 11.1456 16.7596 11.2304L15.8768 10.3904L16.528 9.73919C16.6843 9.58235 16.6838 9.32849 16.527 9.17219C16.3701 9.0159 16.1163 9.01635 15.96 9.17319L15.296 9.83999L13.856 8.46719C14.8335 7.5954 16.1574 7.22097 17.4468 7.45159C19.0919 7.74743 20.7772 7.21268 21.9508 6.02239L22.4676 5.49759C23.1884 6.21839 23.2 6.19239 23.2 6.34399ZM17.4588 0.882795C17.5695 0.778457 17.7424 0.778457 17.8532 0.882795L18.5052 1.53479L17.374 2.66639C17.27 2.76682 17.2283 2.91555 17.2649 3.0554C17.3015 3.19525 17.4107 3.30447 17.5506 3.34107C17.6904 3.37768 17.8391 3.33598 17.9396 3.23199L19.0708 2.10079L20.2024 3.23199L19.0712 4.36319C18.9196 4.52015 18.9217 4.76963 19.076 4.92392C19.2303 5.07822 19.4798 5.08038 19.6368 4.92879L20.768 3.79759L21.9004 4.92999L21.3804 5.45919C20.3918 6.4616 18.9723 6.91166 17.5868 6.66199C16.0331 6.38427 14.4388 6.84692 13.2752 7.91319L11.8176 6.52519L17.4588 0.882795ZM4.78756 7.24879C4.77218 6.91067 4.54568 6.61882 4.22196 6.51999L2.10196 5.86479L1.99996 3.53719L4.64396 0.799995L16.204 11.8036C11.59 16.9172 11.7 16.6772 11.6248 17.0472L10.4516 16.6836C10.4324 16.2536 10.3716 14.9408 10.3516 14.4612C10.3368 14.1235 10.1103 13.8319 9.78676 13.734L7.66676 13.074C7.56436 10.8048 7.60796 10.682 7.40196 10.4136C7.29959 10.2823 7.16217 10.1826 7.00556 10.126L4.88276 9.47079L4.78756 7.24879ZM0.882759 17.4588L6.79756 11.544C6.87756 13.304 6.85956 13.1684 6.91116 13.3232L4.51716 15.7172C4.41318 15.8176 4.37147 15.9663 4.40808 16.1062C4.44469 16.246 4.5539 16.3553 4.69376 16.3919C4.83361 16.4285 4.98233 16.3868 5.08276 16.2828L7.50436 13.8612L9.55236 14.4984L9.62236 16.0504C8.63895 16.9942 7.2633 17.4106 5.92156 17.1704C4.32876 16.8855 2.69568 17.3784 1.52636 18.4968L0.882759 17.8528C0.774726 17.7437 0.774726 17.5679 0.882759 17.4588Z" fill="#FB9805"/>
<path d="M15.1113 5.49439C15.2675 5.65054 15.5207 5.65054 15.6769 5.49439L16.8084 4.36319C16.9095 4.26209 16.9489 4.11476 16.9119 3.97671C16.8748 3.83866 16.7669 3.73085 16.6289 3.69391C16.4908 3.65696 16.3435 3.69649 16.2424 3.79759L15.1113 4.92879C14.9551 5.08499 14.9551 5.33819 15.1113 5.49439Z" fill="#FB9805"/>
<path d="M15.1527 19.92L17.5747 22.1048C17.7386 22.2527 17.9915 22.2398 18.1395 22.076L21.9635 17.838C22.0346 17.7592 22.0715 17.6553 22.066 17.5493C22.0606 17.4433 22.0132 17.3438 21.9343 17.2728L19.5127 15.088C19.4339 15.0169 19.3301 14.98 19.2241 14.9855C19.118 14.9909 19.0186 15.0383 18.9475 15.1172L15.1239 19.354C15.0525 19.4328 15.0154 19.5368 15.0208 19.643C15.0262 19.7492 15.0737 19.8489 15.1527 19.92ZM19.2727 15.95L21.1011 17.6L17.8135 21.2436L15.9859 19.5944L19.2727 15.95Z" fill="#FB9805"/>
<path d="M4.95384 2.24719C4.79314 2.10027 4.54444 2.10887 4.39428 2.26655C4.24411 2.42423 4.24765 2.67305 4.40224 2.82639C5.02904 3.42319 5.06304 3.49919 5.26864 3.49919C5.43239 3.4994 5.57972 3.39978 5.64053 3.24775C5.70135 3.09572 5.66336 2.92197 5.54464 2.80919L4.95384 2.24719Z" fill="#FB9805"/>
<path d="M9.99315 7.99759C10.1567 7.99763 10.3038 7.89808 10.3646 7.74623C10.4254 7.59437 10.3876 7.42082 10.2692 7.308L6.72555 3.93399C6.56441 3.79054 6.31854 3.80072 6.16981 3.957C6.02108 4.11328 6.02309 4.35936 6.17435 4.51319L9.71755 7.8872C9.79186 7.95799 9.89053 7.99751 9.99315 7.99759Z" fill="#FB9805"/>
</g>
<defs>
<clipPath id="clip0">
<rect width="24" height="24" fill="white"/>
</clipPath>
</defs>
</svg>
