<svg width="24" height="24" viewBox="0 0 24 24" fill="none" xmlns="http://www.w3.org/2000/svg">
<g clip-path="url(#clip0)">
<path d="M0.351562 17.5234C0.545654 17.5234 0.703125 17.3661 0.703125 17.1718V6.93237H21.4748V10.7968C21.4748 10.9911 21.6323 11.1484 21.8264 11.1484C22.0206 11.1484 22.1779 10.9911 22.1779 10.7968V3.84888C22.1779 2.67023 21.219 1.7113 20.0405 1.7113H19.1186V1.27588C19.1186 0.804932 18.7355 0.421875 18.2646 0.421875H17.6115C17.1407 0.421875 16.7576 0.804932 16.7576 1.27588V1.7113H14.426V1.27588C14.426 0.804932 14.0429 0.421875 13.572 0.421875H12.9188C12.4481 0.421875 12.065 0.804932 12.065 1.27588V1.7113H9.73315V1.27588C9.73315 0.804932 9.3501 0.421875 8.87915 0.421875H8.2262C7.75525 0.421875 7.37219 0.804932 7.37219 1.27588V1.7113H5.04053V1.27588C5.04053 0.804932 4.65747 0.421875 4.18652 0.421875H3.53357C3.06262 0.421875 2.67957 0.804932 2.67957 1.27588V1.7113H2.13757C0.958923 1.7113 0 2.67023 0 3.84888V17.1718C0 17.3661 0.157471 17.5234 0.351562 17.5234ZM17.4608 1.27588C17.4608 1.19275 17.5285 1.125 17.6116 1.125H18.2648C18.3479 1.125 18.4155 1.19275 18.4155 1.27588V2.98389C18.4155 3.06702 18.3479 3.13477 18.2648 3.13477H17.6116C17.5285 3.13477 17.4608 3.0672 17.4608 2.98389V1.27588ZM12.7681 1.27588C12.7681 1.19275 12.8357 1.125 12.9188 1.125H13.572C13.6551 1.125 13.7228 1.19275 13.7228 1.27588V2.98389C13.7228 3.06702 13.6551 3.13477 13.572 3.13477H12.9188C12.8357 3.13477 12.7681 3.0672 12.7681 2.98389V1.27588ZM8.07532 1.27588C8.07532 1.19275 8.14307 1.125 8.2262 1.125H8.87933C8.96246 1.125 9.03021 1.19275 9.03021 1.27588V2.98389C9.03021 3.06702 8.96246 3.13477 8.87933 3.13477H8.2262C8.14307 3.13477 8.07532 3.0672 8.07532 2.98389V1.27588ZM3.38269 1.27588C3.38269 1.19275 3.45044 1.125 3.53357 1.125H4.18671C4.26984 1.125 4.3374 1.19275 4.3374 1.27588V2.98389C4.3374 3.06702 4.26984 3.13477 4.18671 3.13477H3.53357C3.45044 3.13477 3.38269 3.0672 3.38269 2.98389V1.27588ZM2.13757 2.41443H2.67957V2.98389C2.67957 3.45483 3.06262 3.83789 3.53357 3.83789H4.18671C4.65747 3.83789 5.04053 3.45483 5.04053 2.98389V2.41443H7.37238V2.98389C7.37238 3.45483 7.75543 3.83789 8.2262 3.83789H8.87933C9.35028 3.83789 9.73334 3.45483 9.73334 2.98389V2.41443H12.065V2.98389C12.065 3.45483 12.4481 3.83789 12.919 3.83789H13.5721C14.0429 3.83789 14.426 3.45483 14.426 2.98389V2.41443H16.7576V2.98389C16.7576 3.45483 17.1407 3.83789 17.6116 3.83789H18.2648C18.7355 3.83789 19.1186 3.45483 19.1186 2.98389V2.41443H20.0405C20.8315 2.41443 21.475 3.05786 21.475 3.84888V6.22925H0.703125V3.84888C0.703125 3.05786 1.34656 2.41443 2.13757 2.41443Z" fill="#FB9805"/>
<path d="M3.98016 20.7929H0.914612C0.797974 20.7929 0.703125 20.6981 0.703125 20.5814V18.774C0.703125 18.5797 0.545654 18.4224 0.351562 18.4224C0.157471 18.4224 0 18.5797 0 18.774V20.5814C0 21.0857 0.410339 21.496 0.914612 21.496H3.98016C4.17426 21.496 4.33173 21.3386 4.33173 21.1445C4.33173 20.9502 4.17426 20.7929 3.98016 20.7929Z" fill="#FB9805"/>
<path d="M3.96838 7.95758H2.74634C2.55225 7.95758 2.39478 8.11505 2.39478 8.30914C2.39478 8.50342 2.55225 8.66071 2.74634 8.66071H3.96838C4.16248 8.66071 4.31995 8.50342 4.31995 8.30914C4.31995 8.11505 4.16248 7.95758 3.96838 7.95758Z" fill="#FB9805"/>
<path d="M6.50195 8.66071H7.724C7.91809 8.66071 8.07556 8.50342 8.07556 8.30914C8.07556 8.11505 7.91809 7.95758 7.724 7.95758H6.50195C6.30786 7.95758 6.15039 8.11505 6.15039 8.30914C6.15039 8.50342 6.30786 8.66071 6.50195 8.66071Z" fill="#FB9805"/>
<path d="M10.2573 8.66071H11.4792C11.6733 8.66071 11.8307 8.50342 11.8307 8.30914C11.8307 8.11505 11.6733 7.95758 11.4792 7.95758H10.2573C10.063 7.95758 9.90576 8.11505 9.90576 8.30914C9.90576 8.50342 10.063 8.66071 10.2573 8.66071Z" fill="#FB9805"/>
<path d="M14.0127 8.66071H15.2347C15.4288 8.66071 15.5863 8.50342 15.5863 8.30914C15.5863 8.11505 15.4288 7.95758 15.2347 7.95758H14.0127C13.8186 7.95758 13.6611 8.11505 13.6611 8.30914C13.6611 8.50342 13.8186 8.66071 14.0127 8.66071Z" fill="#FB9805"/>
<path d="M18.9902 7.95758H17.7683C17.574 7.95758 17.4167 8.11505 17.4167 8.30914C17.4167 8.50342 17.574 8.66071 17.7683 8.66071H18.9902C19.1843 8.66071 19.3417 8.50342 19.3417 8.30914C19.3417 8.11505 19.1843 7.95758 18.9902 7.95758Z" fill="#FB9805"/>
<path d="M3.96838 9.72546H2.74634C2.55225 9.72546 2.39478 9.88275 2.39478 10.077C2.39478 10.2713 2.55225 10.4286 2.74634 10.4286H3.96838C4.16248 10.4286 4.31995 10.2713 4.31995 10.077C4.31995 9.88275 4.16248 9.72546 3.96838 9.72546Z" fill="#FB9805"/>
<path d="M6.50195 10.4286H7.724C7.91809 10.4286 8.07556 10.2713 8.07556 10.077C8.07556 9.88275 7.91809 9.72546 7.724 9.72546H6.50195C6.30786 9.72546 6.15039 9.88275 6.15039 10.077C6.15039 10.2713 6.30786 10.4286 6.50195 10.4286Z" fill="#FB9805"/>
<path d="M10.2573 10.4286H11.4792C11.6733 10.4286 11.8307 10.2713 11.8307 10.077C11.8307 9.88275 11.6733 9.72546 11.4792 9.72546H10.2573C10.063 9.72546 9.90576 9.88275 9.90576 10.077C9.90576 10.2713 10.063 10.4286 10.2573 10.4286Z" fill="#FB9805"/>
<path d="M14.0127 10.4286H15.2347C15.4288 10.4286 15.5863 10.2713 15.5863 10.077C15.5863 9.88275 15.4288 9.72546 15.2347 9.72546H14.0127C13.8186 9.72546 13.6611 9.88275 13.6611 10.077C13.6611 10.2713 13.8186 10.4286 14.0127 10.4286Z" fill="#FB9805"/>
<path d="M18.9902 9.72546H17.7683C17.574 9.72546 17.4167 9.88275 17.4167 10.077C17.4167 10.2713 17.574 10.4286 17.7683 10.4286H18.9902C19.1843 10.4286 19.3417 10.2713 19.3417 10.077C19.3417 9.88275 19.1843 9.72546 18.9902 9.72546Z" fill="#FB9805"/>
<path d="M6.51058 17.3304L8.3182 19.138C8.57967 19.3995 8.92721 19.5434 9.29708 19.5434C9.66695 19.5434 10.0147 19.3995 10.276 19.138L15.2262 14.1877C15.766 13.6479 15.766 12.7696 15.2262 12.2298C14.6864 11.69 13.8081 11.69 13.2683 12.2298L9.29708 16.201L8.46835 15.3724C7.92873 14.8326 7.05038 14.8326 6.5104 15.3724C5.97079 15.9122 5.97079 16.7906 6.51058 17.3304ZM7.00771 15.8696C7.14046 15.7368 7.31496 15.6703 7.48946 15.6703C7.66396 15.6703 7.83846 15.7368 7.97121 15.8696L9.04842 16.9468C9.18575 17.0841 9.40823 17.0841 9.54556 16.9468L13.7654 12.7271C14.0313 12.4614 14.4634 12.4614 14.7289 12.7269C14.9946 12.9926 14.9946 13.4249 14.7289 13.6906L9.77883 18.6407C9.65011 18.7694 9.47909 18.8403 9.29708 18.8403C9.11507 18.8403 8.94405 18.7694 8.81533 18.6407L7.00771 16.8331C6.74203 16.5674 6.74203 16.1353 7.00771 15.8696Z" fill="#FB9805"/>
<path d="M22.178 15.2043V12.399C22.178 12.2047 22.0208 12.0474 21.8265 12.0474C21.6324 12.0474 21.4749 12.2047 21.4749 12.399V14.7559C20.8339 14.4236 20.1064 14.2355 19.3359 14.2355C16.764 14.2355 14.6716 16.3279 14.6716 18.8998C14.6716 19.5734 14.8154 20.2139 15.0734 20.7929H5.58228C5.38818 20.7929 5.23071 20.9502 5.23071 21.1445C5.23071 21.3386 5.38818 21.496 5.58228 21.496H15.4628C16.3009 22.7424 17.7242 23.564 19.3359 23.564C21.9078 23.564 24.0001 21.4717 24.0001 18.8998C24.0001 17.3969 23.2853 16.0578 22.178 15.2043ZM19.3359 22.8609C17.1516 22.8609 15.3748 21.084 15.3748 18.8998C15.3748 16.7155 17.1518 14.9387 19.3359 14.9387C21.52 14.9387 23.297 16.7155 23.297 18.8998C23.297 21.084 21.52 22.8609 19.3359 22.8609Z" fill="#FB9805"/>
<path d="M19.3358 15.4466C17.4316 15.4466 15.8826 16.9958 15.8826 18.8998C15.8826 20.8039 17.4316 22.353 19.3358 22.353C21.2399 22.353 22.7888 20.8039 22.7888 18.8998C22.7888 16.9958 21.2397 15.4466 19.3358 15.4466ZM19.6505 21.6312C19.6738 21.5841 19.6873 21.5314 19.6873 21.4753V21.0471C19.6873 20.853 19.5298 20.6955 19.3358 20.6955C19.1417 20.6955 18.9842 20.853 18.9842 21.0471V21.4753C18.9842 21.5314 18.9976 21.5841 19.021 21.6312C17.7557 21.4863 16.7492 20.4798 16.6044 19.2145C16.6512 19.238 16.7042 19.2513 16.7602 19.2513H17.1883C17.3826 19.2513 17.5399 19.0941 17.5399 18.8998C17.5399 18.7055 17.3826 18.5482 17.1883 18.5482H16.7602C16.7042 18.5482 16.6512 18.5618 16.6044 18.585C16.7492 17.3198 17.7557 16.3132 19.021 16.1684C18.9976 16.2155 18.9842 16.2682 18.9842 16.3242V16.7525C18.9842 16.9468 19.1417 17.1041 19.3358 17.1041C19.5298 17.1041 19.6873 16.9468 19.6873 16.7525V16.3242C19.6873 16.2682 19.6738 16.2155 19.6505 16.1684C20.9158 16.3132 21.9223 17.3198 22.0671 18.585C22.0201 18.5618 21.9673 18.5482 21.9113 18.5482H21.483C21.2889 18.5482 21.1315 18.7055 21.1315 18.8998C21.1315 19.0941 21.2889 19.2513 21.483 19.2513H21.9113C21.9673 19.2513 22.0201 19.238 22.0671 19.2145C21.9221 20.4798 20.9158 21.4863 19.6505 21.6312Z" fill="#FB9805"/>
<path d="M20.1106 18.5482H19.6873V18.1877C19.6873 17.9936 19.5298 17.8361 19.3357 17.8361C19.1414 17.8361 18.9841 17.9936 18.9841 18.1877V18.8998C18.9841 19.0941 19.1414 19.2513 19.3357 19.2513H20.1106C20.3047 19.2513 20.4622 19.0941 20.4622 18.8998C20.4622 18.7055 20.3047 18.5482 20.1106 18.5482Z" fill="#FB9805"/>
</g>
<defs>
<clipPath id="clip0">
<rect width="24" height="24" fill="white"/>
</clipPath>
</defs>
</svg>
