<svg width="24" height="24" viewBox="0 0 24 24" fill="none" xmlns="http://www.w3.org/2000/svg">
<g clip-path="url(#clip0)">
<path d="M21.1874 9.66633C21.3737 9.61168 21.4804 9.41635 21.4258 9.23002C20.8406 7.2353 19.602 5.44036 17.9382 4.17577C16.2188 2.86894 14.1654 2.17814 12 2.17814C6.58429 2.17814 2.17822 6.58421 2.17822 12C2.17822 14.3314 3.00936 16.5916 4.51865 18.3642C4.58821 18.4458 4.68707 18.4878 4.78654 18.4878C4.86711 18.4878 4.94811 18.4603 5.01425 18.4039C5.16205 18.278 5.17986 18.0562 5.05405 17.9083C3.72899 16.3521 2.96736 14.3908 2.88857 12.3516H10.7502C10.8724 12.7854 11.2146 13.1276 11.6485 13.2498V17.2087C11.6485 17.4028 11.8058 17.5602 12 17.5602C12.1942 17.5602 12.3516 17.4028 12.3516 17.2087V13.2498C12.8973 13.0961 13.2986 12.5942 13.2986 12C13.2986 11.8893 13.2846 11.7819 13.2584 11.6793L20.067 7.74844C20.3477 8.27757 20.5783 8.83908 20.7511 9.42793C20.8057 9.61426 21.0009 9.72113 21.1874 9.66633ZM12 12.5955C11.6717 12.5955 11.4046 12.3283 11.4046 12C11.4046 11.6717 11.6717 11.4046 12 11.4046C12.3284 11.4046 12.5955 11.6717 12.5955 12C12.5955 12.3283 12.3284 12.5955 12 12.5955ZM12.906 11.0709C12.6718 10.8425 12.3522 10.7014 12 10.7014C11.7695 10.7014 11.5529 10.7621 11.3651 10.8679L9.23521 8.73802C9.09791 8.60072 8.87535 8.60072 8.738 8.73802C8.60071 8.87532 8.60071 9.09793 8.738 9.23518L10.8679 11.3651C10.818 11.4537 10.7783 11.5486 10.7502 11.6484H2.88875C3.07424 6.78272 7.08974 2.88127 12 2.88127C15.1661 2.88127 18.0696 4.55002 19.7136 7.14066L12.906 11.0709Z" fill="#FB9805"/>
<path d="M12 3.78811C11.8058 3.78811 11.6484 3.94552 11.6484 4.13967V5.08669C11.6484 5.28084 11.8058 5.43825 12 5.43825C12.1942 5.43825 12.3516 5.28084 12.3516 5.08669V4.13967C12.3516 3.94552 12.1942 3.78811 12 3.78811Z" fill="#FB9805"/>
<path d="M8.37433 5.01698C8.27729 4.8488 8.06219 4.79123 7.89409 4.88831C7.72595 4.98539 7.66834 5.20041 7.76542 5.36855L8.23895 6.18872C8.30406 6.3015 8.42223 6.36455 8.54373 6.36455C8.60336 6.36455 8.66387 6.34936 8.71919 6.31739C8.88733 6.22031 8.94494 6.0053 8.84786 5.83716L8.37433 5.01698Z" fill="#FB9805"/>
<path d="M6.18887 8.23889L5.3687 7.76536C5.20042 7.66824 4.9855 7.72589 4.88847 7.89403C4.79139 8.06217 4.849 8.27719 5.01714 8.37426L5.83731 8.84779C5.89271 8.87976 5.95314 8.89495 6.01276 8.89495C6.13426 8.89495 6.25243 8.83186 6.31754 8.71912C6.41467 8.55098 6.35701 8.33597 6.18887 8.23889Z" fill="#FB9805"/>
<path d="M5.83731 15.1522L5.01714 15.6257C4.849 15.7228 4.79139 15.9378 4.88847 16.106C4.95358 16.2187 5.07175 16.2818 5.19325 16.2818C5.25287 16.2818 5.31339 16.2666 5.3687 16.2346L6.18887 15.7611C6.35701 15.664 6.41462 15.449 6.31754 15.2809C6.22051 15.1126 6.00536 15.0551 5.83731 15.1522Z" fill="#FB9805"/>
<path d="M8.23895 17.8113L7.76542 18.6315C7.66834 18.7996 7.72595 19.0147 7.89409 19.1117C7.9495 19.1437 8.00992 19.1589 8.06955 19.1589C8.19105 19.1589 8.30922 19.0958 8.37433 18.9831L8.84786 18.1629C8.94494 17.9947 8.88733 17.7797 8.71919 17.6827C8.55095 17.5855 8.33594 17.6431 8.23895 17.8113Z" fill="#FB9805"/>
<path d="M12 18.5618C11.8058 18.5618 11.6484 18.7192 11.6484 18.9133V19.8603C11.6484 20.0545 11.8058 20.2119 12 20.2119C12.1942 20.2119 12.3516 20.0545 12.3516 19.8603V18.9133C12.3516 18.7192 12.1942 18.5618 12 18.5618Z" fill="#FB9805"/>
<path d="M18.9133 11.6484C18.7191 11.6484 18.5618 11.8058 18.5618 12C18.5618 12.1942 18.7191 12.3516 18.9133 12.3516H19.8603C20.0545 12.3516 20.2119 12.1942 20.2119 12C20.2119 11.8058 20.0545 11.6484 19.8603 11.6484H18.9133Z" fill="#FB9805"/>
<path d="M16.1059 4.88831C15.9377 4.79119 15.7227 4.8488 15.6257 5.01699L15.1521 5.83716C15.0551 6.0053 15.1127 6.22031 15.2808 6.31739C15.3362 6.34936 15.3966 6.36455 15.4563 6.36455C15.5778 6.36455 15.6959 6.30146 15.761 6.18872L16.2346 5.36855C16.3316 5.20036 16.274 4.98535 16.1059 4.88831Z" fill="#FB9805"/>
<path d="M18.6291 17.2983C17.8952 17.2983 17.2981 17.8953 17.2981 18.6292C17.2981 19.3631 17.8951 19.9601 18.6291 19.9601C19.3629 19.9601 19.96 19.3631 19.96 18.6292C19.96 17.8953 19.3629 17.2983 18.6291 17.2983ZM18.6291 19.257C18.2829 19.257 18.0012 18.9754 18.0012 18.6292C18.0012 18.283 18.2829 18.0014 18.6291 18.0014C18.9752 18.0014 19.2569 18.283 19.2569 18.6292C19.2569 18.9754 18.9752 19.257 18.6291 19.257Z" fill="#FB9805"/>
<path d="M23.7053 17.5069L22.7437 17.3493C23.5667 15.6968 24 13.858 24 12C24 8.79473 22.7518 5.78128 20.4853 3.51473C18.2188 1.24819 15.2053 0 12 0C9.1343 0 6.36005 1.02656 4.18833 2.89064C4.04095 3.01711 4.02408 3.23906 4.1505 3.38639C4.27692 3.53372 4.49888 3.55064 4.64625 3.42417C6.69056 1.6695 9.30216 0.703125 12 0.703125C18.2291 0.703125 23.2969 5.77087 23.2969 12C23.2969 13.0969 23.1363 14.1865 22.8258 15.2303L21.8787 14.2832C21.7975 14.202 21.6851 14.1683 21.5777 14.1844C21.7398 13.4714 21.8218 12.74 21.8218 12C21.8218 11.6348 21.8015 11.2666 21.7615 10.9056C21.7402 10.7126 21.5661 10.5735 21.3734 10.5949C21.1804 10.6163 21.0413 10.7901 21.0627 10.9831C21.0998 11.3184 21.1187 11.6606 21.1187 12C21.1187 12.9488 20.9736 13.8819 20.6881 14.7756L20.3721 15.0026C20.2383 14.938 20.1009 14.881 19.961 14.8317L19.7514 13.5531C19.7235 13.3831 19.5766 13.2584 19.4045 13.2584H17.8538C17.6816 13.2584 17.5348 13.3831 17.5069 13.5531L17.2973 14.8317C17.1574 14.8809 17.0201 14.938 16.8862 15.0026L15.8333 14.2463C15.6934 14.1458 15.5014 14.1614 15.3796 14.2832L14.2832 15.3797C14.1614 15.5015 14.1458 15.6935 14.2463 15.8334L15.0026 16.8863C14.938 17.0201 14.8809 17.1575 14.8318 17.2973L13.5531 17.5069C13.3831 17.5348 13.2584 17.6817 13.2584 17.8538V19.4045C13.2584 19.5767 13.3831 19.7236 13.5531 19.7514L14.8317 19.961C14.8809 20.1008 14.938 20.2382 15.0026 20.3721L14.7755 20.6881C13.8818 20.9736 12.9487 21.1187 12 21.1187C9.876 21.1187 7.80811 20.3726 6.17719 19.0179C6.02794 18.8939 5.80622 18.9143 5.68209 19.0638C5.55806 19.2131 5.57855 19.4348 5.72794 19.5589C7.48477 21.0182 9.71227 21.8219 12 21.8219C12.74 21.8219 13.4714 21.7398 14.1844 21.5778C14.1683 21.6851 14.202 21.7975 14.2832 21.8787L15.2303 22.8258C14.1866 23.1363 13.0969 23.2969 12 23.2969C5.77087 23.2969 0.703125 18.2291 0.703125 12C0.703125 9.25214 1.70142 6.60375 3.51413 4.54275C3.64233 4.39697 3.62813 4.17483 3.4823 4.04658C3.33647 3.91833 3.11428 3.93258 2.98612 4.07841C1.0605 6.26784 0 9.08109 0 12C0 15.2053 1.24823 18.2187 3.51473 20.4853C5.78123 22.7518 8.79473 24 12 24C13.858 24 15.6968 23.5667 17.3493 22.7437L17.507 23.7053C17.5349 23.8752 17.6817 24 17.8539 24H19.4045C19.5767 24 19.7236 23.8753 19.7514 23.7053L19.9611 22.4266C20.1009 22.3774 20.2382 22.3203 20.3721 22.2558L21.4251 23.0121C21.5648 23.1125 21.7569 23.0969 21.8788 22.9751L22.9753 21.8786C23.097 21.7568 23.1127 21.5648 23.0122 21.4249L22.2559 20.372C22.3204 20.2382 22.3775 20.1008 22.4267 19.961L23.7053 19.7514C23.8753 19.7235 24 19.5766 24 19.4045V17.8538C24 17.6816 23.8753 17.5348 23.7053 17.5069ZM23.2969 19.1059L22.1008 19.302C21.9669 19.3239 21.8576 19.4209 21.8199 19.5512C21.7516 19.7871 21.6564 20.0161 21.537 20.232C21.4712 20.3508 21.4798 20.4969 21.559 20.6073L22.2669 21.5926L21.5927 22.2668L20.6073 21.559C20.497 21.4798 20.3509 21.4711 20.2319 21.537C20.0161 21.6564 19.7871 21.7517 19.5512 21.8199C19.421 21.8576 19.3239 21.9669 19.302 22.1007L19.1059 23.2969H18.1525L17.9564 22.1008C17.9345 21.9669 17.8375 21.8576 17.7072 21.8199C17.4714 21.7517 17.2424 21.6565 17.0265 21.537C16.9076 21.4711 16.7615 21.4798 16.6511 21.559L15.6657 22.2668L14.9915 21.5927L15.6994 20.6073C15.7786 20.497 15.7872 20.3508 15.7214 20.232C15.6019 20.016 15.5067 19.787 15.4385 19.5513C15.4008 19.421 15.2915 19.324 15.1576 19.302L13.9615 19.106V18.1525L15.1576 17.9565C15.2915 17.9345 15.4008 17.8375 15.4385 17.7072C15.5067 17.4715 15.6019 17.2425 15.7214 17.0265C15.7872 16.9076 15.7786 16.7615 15.6994 16.6512L14.9915 15.6658L15.6657 14.9917L16.6511 15.6995C16.7614 15.7787 16.9076 15.7874 17.0265 15.7215C17.2423 15.602 17.4713 15.5068 17.7073 15.4385C17.8375 15.4008 17.9345 15.2915 17.9564 15.1577L18.1525 13.9616H19.1059L19.302 15.1577C19.3239 15.2915 19.4209 15.4008 19.5511 15.4385C19.7871 15.5068 20.0161 15.602 20.2319 15.7215C20.3506 15.7873 20.4969 15.7787 20.6072 15.6995L21.5926 14.9917L22.2668 15.6658L21.559 16.6512C21.4798 16.7615 21.4711 16.9077 21.537 17.0265C21.6564 17.2424 21.7516 17.4714 21.8199 17.7073C21.8576 17.8375 21.9669 17.9345 22.1007 17.9564L23.2969 18.1525V19.1059Z" fill="#FB9805"/>
<path d="M18.6292 15.9924C17.1753 15.9924 15.9924 17.1753 15.9924 18.6292C15.9924 20.083 17.1753 21.2659 18.6292 21.2659C20.0831 21.2659 21.266 20.083 21.266 18.6292C21.266 17.1753 20.0831 15.9924 18.6292 15.9924ZM18.6292 20.5628C17.563 20.5628 16.6956 19.6954 16.6956 18.6292C16.6956 17.563 17.563 16.6956 18.6292 16.6956C19.6954 16.6956 20.5628 17.563 20.5628 18.6292C20.5628 19.6954 19.6954 20.5628 18.6292 20.5628Z" fill="#FB9805"/>
</g>
<defs>
<clipPath id="clip0">
<rect width="24" height="24" fill="white"/>
</clipPath>
</defs>
</svg>
