<svg display="none" xmlns="http://www.w3.org/2000/svg">

  <symbol id="10h" viewBox="0 0 80 79">
       <g clip-path="url(#clip0)">
        <ellipse cx="45.8536" cy="45.1575" rx="25.3659" ry="24.9104" fill="#00B4FD"/>
        <path d="M70.4688 22.0696C70.4688 22.9171 69.7693 23.604 68.9063 23.604C68.0432 23.604 67.3438 22.9171 67.3438 22.0696C67.3438 21.2221 68.0432 20.5352 68.9063 20.5352C69.7693 20.5352 70.4688 21.2221 70.4688 22.0696Z" fill="#00B4FD"/>
        <path d="M71.9232 25.5976C71.2091 26.0735 71.0223 27.0271 71.507 27.729C75.0189 32.8137 76.875 38.7627 76.875 44.9328C76.875 61.8549 62.8564 75.6218 45.625 75.6218C28.3936 75.6218 14.375 61.8549 14.375 44.9328C14.375 41.1093 15.0806 37.3924 16.4691 33.8686C16.7078 33.8782 16.947 33.8848 17.1875 33.8848C18.1177 33.8848 19.0375 33.8117 19.9414 33.669C18.338 37.194 17.5 41.0272 17.5 44.9328C17.5 60.1796 30.0824 72.5529 45.625 72.5529C61.0541 72.5529 73.75 60.2905 73.75 44.9328C73.75 37.5567 70.8246 30.6205 65.5127 25.4022C60.199 20.1857 53.136 17.3128 45.625 17.3128C41.6479 17.3128 37.7448 18.1357 34.1553 19.7109C34.3005 18.8226 34.375 17.9193 34.375 17.0059C34.375 16.7709 34.3683 16.5354 34.3585 16.3004C37.9443 14.9368 41.7285 14.2439 45.625 14.2439C51.908 14.2439 57.9657 16.0666 63.1433 19.5155C63.855 19.9891 64.8273 19.811 65.3137 19.1067C65.7983 18.4055 65.6116 17.4512 64.8981 16.9759C59.2004 13.1805 52.536 11.175 45.625 11.175C41.593 11.175 37.6691 11.8499 33.9313 13.1799C32.1576 5.615 25.282 0.126953 17.1875 0.126953C7.71057 0.126953 0 7.69909 0 17.0059C0 24.952 5.59265 31.709 13.2916 33.449C11.9373 37.1215 11.25 40.9756 11.25 44.9328C11.25 63.5901 26.6241 78.6907 45.625 78.6907C64.6234 78.6907 80 63.5925 80 44.9328C80 38.1459 77.9578 31.6011 74.093 26.0058C73.6084 25.3045 72.6373 25.1223 71.9232 25.5976ZM32.9309 23.7814C36.3177 21.8172 40.1288 20.6718 44.0625 20.4314V24.985C44.0625 25.8325 44.762 26.5194 45.625 26.5194C46.488 26.5194 47.1875 25.8325 47.1875 24.985V20.4302C52.7582 20.7659 57.981 22.8901 62.1631 26.5218L58.8824 29.743C58.2727 30.3424 58.2727 31.314 58.8824 31.9134C59.4934 32.5128 60.4822 32.5122 61.0925 31.9134L64.3726 28.6922C68.0707 32.7993 70.2338 37.9277 70.5756 43.3984H65.9375C65.0745 43.3984 64.375 44.0859 64.375 44.9328C64.375 45.7804 65.0745 46.4661 65.9375 46.4661H70.5756C70.2338 51.9367 68.0707 57.0669 64.3726 61.174L61.0925 57.9528C60.4822 57.3534 59.4928 57.3534 58.8824 57.9528C58.2721 58.5516 58.2721 59.5233 58.8824 60.1226L62.1625 63.3438C57.9803 66.9761 52.7582 69.1004 47.1875 69.4354V64.8806C47.1875 64.0331 46.4874 63.3462 45.625 63.3462C44.762 63.3462 44.0625 64.0331 44.0625 64.8806V69.4354C38.4918 69.0998 33.269 66.9755 29.0869 63.3438L32.3669 60.1226C32.9773 59.5233 32.9773 58.5516 32.3669 57.9522C31.7572 57.3534 30.7678 57.3534 30.1575 57.9522L26.8774 61.1734C23.1787 57.0663 21.0156 51.9379 20.6744 46.4673H25.3125C26.1755 46.4673 26.875 45.7798 26.875 44.9328C26.875 44.0853 26.1755 43.3984 25.3125 43.3984H20.6757C20.9204 39.5347 22.0868 35.7927 24.0869 32.4666C28.0231 30.7703 31.2048 27.6457 32.9309 23.7814ZM3.125 17.0059C3.125 9.39118 9.43359 3.19585 17.1875 3.19585C24.9579 3.19585 31.25 9.34862 31.25 17.0059C31.25 24.6613 24.9188 30.8159 17.1875 30.8159C9.40735 30.8159 3.125 24.6487 3.125 17.0059Z" fill="#00B4FD"/>
        <path d="M43.6738 51.2576H56.1738C57.0369 51.2576 57.7363 50.5707 57.7363 49.7231C57.7363 48.8756 57.0369 48.1887 56.1738 48.1887H45.2363V37.4475C45.2363 36.6 44.5369 35.9131 43.6738 35.9131C42.8108 35.9131 42.1113 36.6 42.1113 37.4475V49.7231C42.1113 50.5707 42.8108 51.2576 43.6738 51.2576Z" fill="white"/>
        <path d="M10.9375 9.3335C10.0745 9.3335 9.375 10.0204 9.375 10.8679V23.1435C9.375 23.9911 10.0745 24.678 10.9375 24.678C11.8005 24.678 12.5 23.9911 12.5 23.1435V10.8679C12.5 10.0204 11.8005 9.3335 10.9375 9.3335Z" fill="#00B4FD"/>
        <path d="M20.3125 24.678C22.8973 24.678 25 22.6131 25 20.0746V13.9368C25 11.3936 22.9022 9.3335 20.3125 9.3335C17.7277 9.3335 15.625 11.3984 15.625 13.9368V20.0746C15.625 22.6131 17.7277 24.678 20.3125 24.678ZM18.75 13.9368C18.75 13.0905 19.4507 12.4024 20.3125 12.4024C21.1749 12.4024 21.875 13.0893 21.875 13.9368V20.0746C21.875 20.921 21.1743 21.6091 20.3125 21.6091C19.4507 21.6091 18.75 20.921 18.75 20.0746V13.9368Z" fill="#00B4FD"/>
      </g>
      <defs>
        <clipPath id="clip0">
        <rect y="0.126953" width="80" height="78.5637" fill="white"/>
        </clipPath>
       </defs>
   </symbol>
   <symbol id="arrow" viewBox="0 0 31 10">
        <path d="M30.4243 5.42426C30.6586 5.18995 30.6586 4.81005 30.4243 4.57574L26.6059 0.757359C26.3716 0.523044 25.9917 0.523044 25.7574 0.757359C25.523 0.991674 25.523 1.37157 25.7574 1.60589L29.1515 5L25.7574 8.39411C25.523 8.62843 25.523 9.00833 25.7574 9.24264C25.9917 9.47696 26.3716 9.47696 26.6059 9.24264L30.4243 5.42426ZM2.43648e-09 5.6L30 5.6L30 4.4L-2.43648e-09 4.4L2.43648e-09 5.6Z" fill="white"/>
   </symbol>
    <symbol id="dm" viewBox="0 0 24 17">
        <path d="M9.48396 17L7.49683 13.2941L9.84525 8.89339L7.49683 4.26104L9.48396 0.477961L14.0724 8.89339L9.48396 17Z" fill="#444444"/>
        <path d="M18.7332 17L16.7461 13.2941L19.0945 8.89339L16.7461 4.26104L18.7332 0.477961L23.3217 8.89339L18.7332 17Z" fill="#FB9805"/>
        <path d="M5.5097 17L7.49683 13.2941L5.1484 8.89339L7.49683 4.26104L5.5097 0.477961L0.92123 8.89339L5.5097 17Z" fill="#444444"/>
        <path d="M11.3626 4.33789H16.7821L18.7331 0.4776H9.48389L11.3626 4.33789Z" fill="#FB9805"/>
        <path d="M11.3626 13.1392H16.7821L18.7331 16.9995H9.48389L11.3626 13.1392Z" fill="#FB9805"/>
   </symbol>
   <symbol id="download" viewBox="0 0 28 22">
        <path d="M17.5 16.7614H15.1844V9.48074C15.1844 9.34853 15.0719 9.24036 14.9344 9.24036H13.0594C12.9219 9.24036 12.8094 9.34853 12.8094 9.48074V16.7614H10.5C10.2906 16.7614 10.175 16.9928 10.3031 17.149L13.8031 21.4068C13.8265 21.4356 13.8564 21.4588 13.8905 21.4748C13.9246 21.4908 13.9621 21.4991 14 21.4991C14.038 21.4991 14.0754 21.4908 14.1095 21.4748C14.1436 21.4588 14.1735 21.4356 14.1969 21.4068L17.6969 17.149C17.825 16.9928 17.7094 16.7614 17.5 16.7614Z" fill="white"/>
        <path d="M23.3563 6.55713C21.925 2.92732 18.2781 0.346191 14.0063 0.346191C9.73438 0.346191 6.0875 2.92432 4.65625 6.55412C1.97813 7.23021 0 9.57696 0 12.3654C0 15.6857 2.79687 18.375 6.24687 18.375H7.5C7.6375 18.375 7.75 18.2669 7.75 18.1347V16.3318C7.75 16.1996 7.6375 16.0914 7.5 16.0914H6.24687C5.19375 16.0914 4.20312 15.6887 3.46562 14.9586C2.73125 14.2314 2.34063 13.2518 2.375 12.2362C2.40313 11.4429 2.68437 10.6978 3.19375 10.0697C3.71562 9.42973 4.44688 8.96398 5.25938 8.75665L6.44375 8.45917L6.87813 7.35941C7.14688 6.67432 7.52187 6.03429 7.99375 5.45436C8.4596 4.87957 9.01142 4.37429 9.63125 3.95497C10.9156 3.08658 12.4281 2.62684 14.0063 2.62684C15.5844 2.62684 17.0969 3.08658 18.3813 3.95497C19.0031 4.37564 19.5531 4.88045 20.0187 5.45436C20.4906 6.03429 20.8656 6.67732 21.1344 7.35941L21.5656 8.45617L22.7469 8.75665C24.4406 9.19535 25.625 10.6767 25.625 12.3654C25.625 13.36 25.2219 14.2975 24.4906 15.0006C24.132 15.3475 23.7054 15.6225 23.2355 15.8097C22.7656 15.9969 22.2618 16.0927 21.7531 16.0914H20.5C20.3625 16.0914 20.25 16.1996 20.25 16.3318V18.1347C20.25 18.2669 20.3625 18.375 20.5 18.375H21.7531C25.2031 18.375 28 15.6857 28 12.3654C28 9.57997 26.0281 7.23622 23.3563 6.55713Z" fill="white"/>
   </symbol>

    <symbol id="g24" viewBox="0 0 80 79">
        <g clip-path="url(#clip0)">
        <path d="M74.4828 35.0831V12.1912C74.4746 11.7742 74.2758 11.383 73.9416 11.1256C73.6074 10.8683 73.173 10.7721 72.7587 10.8638C56.6373 14.3585 44.4966 3.71177 41.0208 0.406675C40.4521 -0.134907 39.5481 -0.134907 38.9794 0.406675C35.5035 3.71177 23.3615 14.3585 7.24147 10.8638C6.82714 10.7721 6.3928 10.8683 6.05857 11.1256C5.72433 11.383 5.5256 11.7742 5.51733 12.1912V35.0831C5.51733 56.3576 20.0111 68.7923 39.3339 78.4069C39.7523 78.6167 40.2479 78.6167 40.6663 78.4069C60.0166 68.7788 74.4828 56.3061 74.4828 35.0831ZM57.5559 20.1262L59.5063 18.2108C59.8526 17.8587 60.3654 17.7175 60.8477 17.8415C61.3299 17.9654 61.7065 18.3353 61.8328 18.8089C61.959 19.2824 61.8152 19.7861 61.4566 20.1262L59.5063 22.0415C58.9651 22.5548 58.1048 22.5475 57.5727 22.025C57.0407 21.5025 57.0332 20.6577 57.5559 20.1262ZM48.7546 14.9857L49.8097 12.4838C50.1011 11.7926 50.9079 11.4642 51.6118 11.7503C52.3157 12.0365 52.6501 12.8288 52.3587 13.52L51.3104 16.0232C51.1217 16.4704 50.7044 16.7847 50.2157 16.8478C49.727 16.9108 49.2412 16.7131 48.9412 16.329C48.6412 15.9449 48.5727 15.4328 48.7615 14.9857H48.7546ZM38.6208 10.8367C38.6208 10.0886 39.2383 9.48214 40.0001 9.48214C40.7619 9.48214 41.3794 10.0886 41.3794 10.8367V13.5458C41.3794 14.2939 40.7619 14.9003 40.0001 14.9003C39.2383 14.9003 38.6208 14.2939 38.6208 13.5458V10.8367ZM28.3877 11.751C28.7257 11.6133 29.1055 11.6132 29.4436 11.7506C29.7818 11.8881 30.0504 12.1518 30.1904 12.4838L31.2456 14.9857C31.4343 15.4328 31.3658 15.9449 31.0659 16.329C30.7659 16.7131 30.2801 16.9108 29.7914 16.8478C29.3027 16.7847 28.8854 16.4704 28.6966 16.0232L27.6415 13.52C27.3504 12.8292 27.6844 12.0374 28.3877 11.751ZM18.5435 18.2108C19.0822 17.682 19.9553 17.682 20.4939 18.2108L22.4442 20.1262C22.8028 20.4663 22.9466 20.9699 22.8204 21.4435C22.6941 21.9171 22.3175 22.2869 21.8353 22.4109C21.353 22.5348 20.8402 22.3936 20.4939 22.0415L18.5435 20.1262C18.0051 19.5972 18.0051 18.7398 18.5435 18.2108ZM11.9656 27.8782C12.2572 27.1876 13.0635 26.8596 13.767 27.1454L16.316 28.1817C16.9242 28.4289 17.2698 29.0637 17.1413 29.6977C17.0128 30.3317 16.4459 30.7882 15.7877 30.7878C15.3973 30.7878 15.4042 30.7431 12.7118 29.6486C12.3737 29.5111 12.1052 29.2473 11.9652 28.9153C11.8253 28.5832 11.8254 28.2102 11.9656 27.8782ZM16.316 50.3895C13.5173 51.5273 13.6015 51.53 13.2401 51.53C12.5805 51.5319 12.0118 51.0751 11.8831 50.4398C11.7544 49.8045 12.1017 49.1686 12.7118 48.9225L15.2594 47.8862C15.9633 47.5997 16.7704 47.9278 17.0622 48.6191C17.3539 49.3103 17.0198 50.1029 16.316 50.3895ZM22.4442 58.4449C20.3228 60.5282 20.2442 60.7571 19.5187 60.7571C18.9609 60.757 18.4581 60.427 18.2447 59.9209C18.0312 59.4148 18.1492 58.8323 18.5435 58.4449L20.4939 56.5296C21.0351 56.0163 21.8954 56.0236 22.4274 56.5461C22.9595 57.0686 22.9669 57.9134 22.4442 58.4449ZM31.2456 63.5854L30.1904 66.0873C30.0019 66.5344 29.5849 66.8489 29.0963 66.9121C28.6077 66.9754 28.1219 66.7779 27.8218 66.394C27.5217 66.0102 27.453 65.4982 27.6415 65.0511L28.6966 62.5479C28.8854 62.1007 29.3027 61.7864 29.7914 61.7233C30.2801 61.6603 30.7659 61.858 31.0659 62.2421C31.3658 62.6262 31.4343 63.1383 31.2456 63.5854ZM41.3794 67.7276C41.3794 68.4757 40.7619 69.0822 40.0001 69.0822C39.2383 69.0822 38.6208 68.4757 38.6208 67.7276V65.0186C38.6208 64.2705 39.2383 63.664 40.0001 63.664C40.7619 63.664 41.3794 64.2705 41.3794 65.0186V67.7276ZM51.6125 66.8133C51.2745 66.951 50.8946 66.9511 50.5565 66.8137C50.2184 66.6763 49.9498 66.4125 49.8097 66.0805L48.7546 63.5787C48.4628 62.8874 48.7969 62.0948 49.5008 61.8083C50.2047 61.5218 51.0118 61.8498 51.3035 62.5411L52.3587 65.0443C52.6497 65.7352 52.3157 66.5269 51.6125 66.8133ZM40.0001 60.9549C29.8854 60.947 21.0673 54.1959 18.5918 44.5649C18.2342 43.0295 18.0587 41.4586 18.0691 39.8836L16.9822 41.6635C16.5738 42.2666 15.7545 42.4475 15.1225 42.0741C14.4905 41.7007 14.2695 40.9051 14.6208 40.2683L17.5366 35.4894C17.9106 34.8777 18.5839 34.5035 19.3104 34.5035C20.037 34.5035 20.7102 34.8777 21.0842 35.4894L24.0001 40.2683C24.2536 40.6832 24.2625 41.1995 24.0233 41.6226C23.7841 42.0458 23.3332 42.3114 22.8405 42.3196C22.3478 42.3277 21.8881 42.0771 21.6346 41.6621L20.836 40.355C21.3035 50.4012 29.7596 58.2955 40.0001 58.2458C47.9667 58.2113 55.1052 53.4059 58.0111 46.1213C58.2918 45.4321 59.0849 45.0931 59.7898 45.3611C60.4946 45.629 60.8486 46.4041 60.5835 47.0993C57.2635 55.4249 49.1048 60.9169 40.0001 60.9549ZM36.7008 32.6083C35.5558 31.3526 33.7889 30.8362 32.1311 31.2727C30.3264 31.6673 29.0235 33.2128 28.9656 35.0275C28.9986 35.5115 28.7662 35.9759 28.356 36.246C27.9457 36.516 27.4199 36.5506 26.9767 36.3367C26.5334 36.1228 26.24 35.693 26.207 35.209C26.3601 27.8349 35.7973 26.5142 38.9766 31.079C40.2515 33.0178 40.2596 35.5082 38.9973 37.4549C37.3794 40.0786 34.1697 41.2476 31.3518 43.7468C30.5593 44.4001 29.883 45.1783 29.3504 46.0495H38.6208C39.3825 46.0495 40.0001 46.6559 40.0001 47.404C40.0001 48.1521 39.3825 48.7586 38.6208 48.7586H27.5863C26.8245 48.7586 26.207 48.1521 26.207 47.404C26.207 43.8172 30.1408 41.0634 33.1477 39.0356C34.5014 38.2805 35.6879 37.2673 36.6373 36.0556C37.3407 35.0169 37.3655 33.6714 36.7008 32.6083ZM55.1725 40.6367C55.9343 40.6367 56.5518 41.2432 56.5518 41.9913C56.5518 42.7394 55.9343 43.3458 55.1725 43.3458H52.4139V47.4094C52.4139 48.1575 51.7963 48.764 51.0346 48.764C50.2728 48.764 49.6553 48.1575 49.6553 47.4094V43.3458H41.3794C40.8524 43.3462 40.3713 43.0516 40.1396 42.5868C39.9079 42.1219 39.9662 41.5681 40.2897 41.1596L49.9449 28.9686C50.3065 28.5111 50.9243 28.33 51.4821 28.5179C52.0399 28.7058 52.4144 29.2212 52.4139 29.8003V40.6367H55.1725ZM61.4566 60.3535C60.918 60.8823 60.0449 60.8823 59.5063 60.3535L57.5559 58.4382C57.0332 57.9067 57.0407 57.0618 57.5727 56.5393C58.1048 56.0168 58.9651 56.0095 59.5063 56.5228L61.4566 58.4382C61.9951 58.9671 61.9951 59.8245 61.4566 60.3535ZM58.9159 41.7203L56.0001 36.9415C55.6081 36.3 55.82 35.468 56.4732 35.0831C57.1264 34.6982 57.9737 34.9062 58.3656 35.5477L58.8884 36.4024C57.6777 27.1018 49.5467 20.178 40.0001 20.3185C32.4826 20.3368 25.6545 24.6241 22.4828 31.3174C22.2857 31.7718 21.8523 32.0848 21.3519 32.1342C20.8515 32.1836 20.3634 31.9616 20.0781 31.5549C19.7928 31.1482 19.7555 30.6212 19.9808 30.1796C23.6047 22.5296 31.4085 17.6296 40.0001 17.6094C51.527 17.4898 61.1138 26.2894 61.7697 37.5917L63.018 35.5477C63.258 35.1064 63.7262 34.831 64.2356 34.8314C64.7451 34.8317 65.2128 35.1078 65.4522 35.5494C65.6915 35.9911 65.6636 36.5263 65.3794 36.9415L62.4635 41.7203C62.0895 42.332 61.4163 42.7063 60.6897 42.7063C59.9632 42.7063 59.2899 42.332 58.9159 41.7203ZM68.0346 50.6847C67.7429 51.3754 66.9367 51.7034 66.2332 51.4175L63.6842 50.3895C62.9803 50.1029 62.6463 49.3103 62.938 48.6191C63.2298 47.9278 64.0369 47.5997 64.7408 47.8862L67.2884 48.9225C67.9886 49.2089 68.3219 49.9967 68.0346 50.6861V50.6847ZM67.2884 29.6473C64.4897 30.7851 64.5739 30.7864 64.2125 30.7864C63.5542 30.7868 62.9874 30.3304 62.8589 29.6964C62.7304 29.0623 63.076 28.4275 63.6842 28.1803L66.2332 27.1441C66.9371 26.8579 67.7439 27.1863 68.0353 27.8776C68.3266 28.5688 67.9922 29.3611 67.2884 29.6473Z" fill="#FB9805"/>
        <path d="M49.6552 40.6369V33.749L44.1987 40.6369H49.6552Z" fill="#FB9805"/>
        </g>
        <defs>
        <clipPath id="clip0">
        <rect width="80" height="78.5637" fill="white"/>
        </clipPath>
        </defs>
    </symbol>

     <symbol id="mico" viewBox="0 0 14 2">
        <rect y="2" width="2" height="10" transform="rotate(-90 0 2)" fill="white"/>
        <rect x="14" y="2" width="2" height="2" transform="rotate(180 14 2)" fill="white"/>
    </symbol>

     <symbol id="gico" viewBox="0 0 14 7">
        <rect y="2" width="2" height="14" transform="rotate(-90 0 2)" fill="white"/>
        <rect x="2" y="7" width="2" height="5" transform="rotate(180 2 7)" fill="white"/>
    </symbol>

    <symbol id="minus" viewBox="0 0 14 2">
       <rect y="2" width="2" height="14" transform="rotate(-90 0 2)" fill="white"/>
    </symbol>

    <symbol id="oico" viewBox="0 0 14 6">
        <rect y="2" width="2" height="14" transform="rotate(-90 0 2)" fill="white"/>
        <rect x="14" y="6" width="6" height="2" transform="rotate(180 14 6)" fill="white"/>
        <rect y="4" width="2" height="2" transform="rotate(-90 0 4)" fill="white"/>
    </symbol>

    <symbol id="pico" viewBox="0 0 14 10">
        <rect width="1.86667" height="10" fill="white"/>
        <rect x="12" width="2" height="6" fill="white"/>
        <rect y="2" width="2" height="14" transform="rotate(-90 0 2)" fill="white"/>
    </symbol>

    <symbol id="mailico" viewBox="0 0 16 16">
       <path d="M13.3333 2.6665H2.66659C1.93325 2.6665 1.33325 3.2665 1.33325 3.99984V11.9998C1.33325 12.7332 1.93325 13.3332 2.66659 13.3332H13.3333C14.0666 13.3332 14.6666 12.7332 14.6666 11.9998V3.99984C14.6666 3.2665 14.0666 2.6665 13.3333 2.6665ZM13.0666 5.49984L8.70659 8.2265C8.27325 8.49984 7.72659 8.49984 7.29325 8.2265L2.93325 5.49984C2.8664 5.46231 2.80786 5.41161 2.76118 5.35081C2.71449 5.29 2.68063 5.22036 2.66164 5.14608C2.64264 5.07181 2.63892 4.99446 2.65069 4.91871C2.66246 4.84296 2.68948 4.77038 2.73011 4.70537C2.77074 4.64036 2.82413 4.58427 2.88707 4.5405C2.95 4.49673 3.02117 4.46618 3.09625 4.4507C3.17133 4.43523 3.24877 4.43515 3.32389 4.45047C3.399 4.46579 3.47023 4.49619 3.53325 4.53984L7.99992 7.33317L12.4666 4.53984C12.5296 4.49619 12.6008 4.46579 12.6759 4.45047C12.7511 4.43515 12.8285 4.43523 12.9036 4.4507C12.9787 4.46618 13.0498 4.49673 13.1128 4.5405C13.1757 4.58427 13.2291 4.64036 13.2697 4.70537C13.3104 4.77038 13.3374 4.84296 13.3491 4.91871C13.3609 4.99446 13.3572 5.07181 13.3382 5.14608C13.3192 5.22036 13.2853 5.29 13.2387 5.35081C13.192 5.41161 13.1334 5.46231 13.0666 5.49984Z"/>
    </symbol>

     <symbol id="phoneico" viewBox="0 0 13 13">
        <g clip-path="url(#clip0)">
        <path d="M11.9569 8.53301C11.161 8.53301 10.3795 8.40853 9.63892 8.1638C9.27604 8.04003 8.82995 8.15357 8.60847 8.38104L7.14675 9.48448C5.45157 8.57959 4.40737 7.53573 3.51484 5.85328L4.58582 4.42965C4.86407 4.15177 4.96387 3.74586 4.84429 3.365C4.59851 2.62055 4.47366 1.83943 4.47366 1.04318C4.47369 0.467966 4.00573 0 3.43054 0H1.04315C0.467966 0 0 0.467966 0 1.04315C0 7.63625 5.36379 13 11.9569 13C12.5321 13 13 12.532 13 11.9569V9.57613C13 9.00098 12.532 8.53301 11.9569 8.53301Z"/>
        </g>
        <defs>
        <clipPath id="clip0">
        <rect width="13" height="13" fill="white"/>
        </clipPath>
        </defs>
     </symbol>

      <symbol id="quality" viewBox="0 0 80 80">
            <g clip-path="url(#clip0)">
            <path d="M40.0002 16.522C26.8363 16.522 16.1414 27.0423 16.1414 39.9524C16.1414 52.8618 26.854 63.3822 40.0002 63.3822C53.1456 63.3822 63.8583 52.8618 63.8583 39.9524C63.8583 27.0423 53.164 16.522 40.0002 16.522ZM51.9654 34.3356L37.5667 47.6727C37.3007 47.929 36.9411 48.0704 36.5681 48.0655C36.178 48.069 35.8035 47.9144 35.5332 47.6372L27.9981 40.0416C27.4463 39.4788 27.4583 38.5837 28.0264 38.0363C28.5938 37.4888 29.5045 37.4923 30.0684 38.0439L36.6049 44.6414L49.9681 32.2669C50.5497 31.725 51.4682 31.7494 52.02 32.3206C52.5718 32.8917 52.547 33.7937 51.9654 34.3356Z" fill="#B9C224"/>
            <path d="M74.2623 48.4932L80.0002 39.9524L74.2623 31.4109C74.0942 31.1574 74.0113 30.8579 74.0262 30.5549L74.607 20.3201L65.3292 15.7021C65.0547 15.5663 64.832 15.3476 64.6937 15.0781L60.009 5.9661L49.5872 6.53655C49.2787 6.55118 48.9737 6.47038 48.7155 6.30461L40.0001 0.67041L31.3025 6.30461C31.0443 6.47038 30.7393 6.55118 30.4315 6.53655L20.0089 5.9661L15.3065 15.0781C15.1682 15.3476 14.9455 15.5663 14.671 15.7021L5.3925 20.302L5.97339 30.5375C5.98828 30.8397 5.90601 31.1393 5.73791 31.3935L0 39.9524L5.73791 48.4932C5.90601 48.7474 5.98828 49.0462 5.97339 49.3492L5.3925 59.584L14.671 64.1845C14.9455 64.3204 15.1682 64.5391 15.3065 64.8086L19.9912 73.9206L30.4131 73.3494H30.4854C30.7684 73.3529 31.0457 73.433 31.2847 73.5814L39.9817 79.2163L48.6793 73.5814C48.9375 73.4163 49.2425 73.3355 49.5503 73.3494L59.9729 73.9206L64.6575 64.8086C64.7958 64.5391 65.0186 64.3204 65.293 64.1845L74.5709 59.584L73.99 49.3492C74.0056 49.0455 74.0992 48.7509 74.2623 48.4932ZM40.0001 66.2351C25.2383 66.2351 13.2362 54.4485 13.2362 39.9524C13.2362 25.4556 25.2383 13.669 40.0001 13.669C54.7619 13.669 66.7633 25.4556 66.7633 39.9524C66.7633 54.4485 54.7619 66.2351 40.0001 66.2351Z" fill="#B9C224"/>
            </g>
            <defs>
            <clipPath id="clip0">
            <rect y="0.563477" width="80" height="78.5637" fill="white"/>
            </clipPath>
            </defs>
     </symbol>

      <symbol id="pin" viewBox="0 0 10 16">
          <path d="M5 0C2.238 0 0 2.23039 0 4.99312C0 9.77011 5 16 5 16C5 16 10 9.7691 10 4.99312C10 2.23139 7.762 0 5 0ZM5 7.75585C4.28392 7.75585 3.59716 7.47121 3.09081 6.96454C2.58446 6.45788 2.3 5.77069 2.3 5.05416C2.3 4.33763 2.58446 3.65044 3.09081 3.14378C3.59716 2.63711 4.28392 2.35247 5 2.35247C5.71608 2.35247 6.40284 2.63711 6.90919 3.14378C7.41554 3.65044 7.7 4.33763 7.7 5.05416C7.7 5.77069 7.41554 6.45788 6.90919 6.96454C6.40284 7.47121 5.71608 7.75585 5 7.75585Z"/>
     </symbol>

      <symbol id="top_icon__1" viewBox="0 0 24 24">
         <g clip-path="url(#clip0)">
        <path d="M0.317159 18.4188C5.07276 23.1744 4.61476 22.7388 4.65476 22.7568L5.58116 23.6828C6.00272 24.1034 6.68519 24.1034 7.10676 23.6828L11.8188 18.9708C11.9304 19.2668 11.6708 18.9736 16.644 23.4612C17.5336 24.264 19.1612 23.9856 19.9264 23.138L23.4768 19.2028C24.2233 18.2959 24.0947 16.9558 23.1892 16.2076L18.6644 12.1252L23.6828 7.10679C24.1034 6.68523 24.1034 6.00276 23.6828 5.58119L18.4188 0.317195C17.9916 -0.0896623 17.3203 -0.0896623 16.8932 0.317195L11.2368 5.97359L5.19556 0.221995C4.87345 -0.0847902 4.36402 -0.0737077 4.05556 0.246795L1.42156 2.98439C1.27184 3.1434 1.19203 3.35574 1.19996 3.57399L1.30396 5.90319C1.32203 6.23817 1.54472 6.52734 1.86396 6.63039L3.98636 7.28519L4.08236 9.50719C4.09786 9.84483 4.32448 10.136 4.64796 10.234L6.42156 10.7864L0.317159 16.8932C-0.103441 17.3148 -0.103441 17.9972 0.317159 18.4188ZM6.54116 23.1172C6.43039 23.2215 6.25752 23.2215 6.14676 23.1172L5.48636 22.4564L8.29156 19.474C8.38945 19.3698 8.42433 19.2213 8.38305 19.0845C8.34177 18.9476 8.23062 18.8431 8.09145 18.8105C7.95228 18.7778 7.80625 18.8218 7.70836 18.926L4.91996 21.8904L3.79756 20.768L5.08276 19.4828C5.23435 19.3258 5.23218 19.0764 5.07789 18.9221C4.92359 18.7678 4.67411 18.7656 4.51716 18.9172L3.23196 20.2024L2.09196 19.0624C3.07682 18.1299 4.44613 17.7207 5.78116 17.96C7.1722 18.2082 8.60369 17.8641 9.72996 17.0108C9.82268 17.2178 9.99796 17.3764 10.2132 17.448L11.6736 17.902C11.686 18.016 12.0852 17.5732 6.54116 23.1172ZM22.8828 18.6668L19.3324 22.602C18.8484 23.1388 17.738 23.3712 17.18 22.8672L12.59 18.7252C12.5472 18.6872 12.5728 18.79 12.4048 17.2084L17.19 11.9004C17.238 11.9004 16.8784 11.5912 22.6532 16.8016C23.2267 17.256 23.329 18.0868 22.8828 18.6668ZM23.2 6.34399C23.2 6.51039 23.5876 6.07279 18.0716 11.5888C17.7628 11.3088 17.5864 11.1016 17.1996 11.1C17.0434 11.1004 16.8907 11.1456 16.7596 11.2304L15.8768 10.3904L16.528 9.73919C16.6843 9.58235 16.6838 9.32849 16.527 9.17219C16.3701 9.0159 16.1163 9.01635 15.96 9.17319L15.296 9.83999L13.856 8.46719C14.8335 7.5954 16.1574 7.22097 17.4468 7.45159C19.0919 7.74743 20.7772 7.21268 21.9508 6.02239L22.4676 5.49759C23.1884 6.21839 23.2 6.19239 23.2 6.34399ZM17.4588 0.882795C17.5695 0.778457 17.7424 0.778457 17.8532 0.882795L18.5052 1.53479L17.374 2.66639C17.27 2.76682 17.2283 2.91555 17.2649 3.0554C17.3015 3.19525 17.4107 3.30447 17.5506 3.34107C17.6904 3.37768 17.8391 3.33598 17.9396 3.23199L19.0708 2.10079L20.2024 3.23199L19.0712 4.36319C18.9196 4.52015 18.9217 4.76963 19.076 4.92392C19.2303 5.07822 19.4798 5.08038 19.6368 4.92879L20.768 3.79759L21.9004 4.92999L21.3804 5.45919C20.3918 6.4616 18.9723 6.91166 17.5868 6.66199C16.0331 6.38427 14.4388 6.84692 13.2752 7.91319L11.8176 6.52519L17.4588 0.882795ZM4.78756 7.24879C4.77218 6.91067 4.54568 6.61882 4.22196 6.51999L2.10196 5.86479L1.99996 3.53719L4.64396 0.799995L16.204 11.8036C11.59 16.9172 11.7 16.6772 11.6248 17.0472L10.4516 16.6836C10.4324 16.2536 10.3716 14.9408 10.3516 14.4612C10.3368 14.1235 10.1103 13.8319 9.78676 13.734L7.66676 13.074C7.56436 10.8048 7.60796 10.682 7.40196 10.4136C7.29959 10.2823 7.16217 10.1826 7.00556 10.126L4.88276 9.47079L4.78756 7.24879ZM0.882759 17.4588L6.79756 11.544C6.87756 13.304 6.85956 13.1684 6.91116 13.3232L4.51716 15.7172C4.41318 15.8176 4.37147 15.9663 4.40808 16.1062C4.44469 16.246 4.5539 16.3553 4.69376 16.3919C4.83361 16.4285 4.98233 16.3868 5.08276 16.2828L7.50436 13.8612L9.55236 14.4984L9.62236 16.0504C8.63895 16.9942 7.2633 17.4106 5.92156 17.1704C4.32876 16.8855 2.69568 17.3784 1.52636 18.4968L0.882759 17.8528C0.774726 17.7437 0.774726 17.5679 0.882759 17.4588Z" fill="#FB9805"/>
        <path d="M15.1113 5.49439C15.2675 5.65054 15.5207 5.65054 15.6769 5.49439L16.8084 4.36319C16.9095 4.26209 16.9489 4.11476 16.9119 3.97671C16.8748 3.83866 16.7669 3.73085 16.6289 3.69391C16.4908 3.65696 16.3435 3.69649 16.2424 3.79759L15.1113 4.92879C14.9551 5.08499 14.9551 5.33819 15.1113 5.49439Z" fill="#FB9805"/>
        <path d="M15.1527 19.92L17.5747 22.1048C17.7386 22.2527 17.9915 22.2398 18.1395 22.076L21.9635 17.838C22.0346 17.7592 22.0715 17.6553 22.066 17.5493C22.0606 17.4433 22.0132 17.3438 21.9343 17.2728L19.5127 15.088C19.4339 15.0169 19.3301 14.98 19.2241 14.9855C19.118 14.9909 19.0186 15.0383 18.9475 15.1172L15.1239 19.354C15.0525 19.4328 15.0154 19.5368 15.0208 19.643C15.0262 19.7492 15.0737 19.8489 15.1527 19.92ZM19.2727 15.95L21.1011 17.6L17.8135 21.2436L15.9859 19.5944L19.2727 15.95Z" fill="#FB9805"/>
        <path d="M4.95384 2.24719C4.79314 2.10027 4.54444 2.10887 4.39428 2.26655C4.24411 2.42423 4.24765 2.67305 4.40224 2.82639C5.02904 3.42319 5.06304 3.49919 5.26864 3.49919C5.43239 3.4994 5.57972 3.39978 5.64053 3.24775C5.70135 3.09572 5.66336 2.92197 5.54464 2.80919L4.95384 2.24719Z" fill="#FB9805"/>
        <path d="M9.99315 7.99759C10.1567 7.99763 10.3038 7.89808 10.3646 7.74623C10.4254 7.59437 10.3876 7.42082 10.2692 7.308L6.72555 3.93399C6.56441 3.79054 6.31854 3.80072 6.16981 3.957C6.02108 4.11328 6.02309 4.35936 6.17435 4.51319L9.71755 7.8872C9.79186 7.95799 9.89053 7.99751 9.99315 7.99759Z" fill="#FB9805"/>
        </g>
        <defs>
        <clipPath id="clip0">
        <rect width="24" height="24" fill="white"/>
        </clipPath>
        </defs>
     </symbol>

      <symbol id="top_icon__2" viewBox="0 0 24 24">
        <g clip-path="url(#clip0)">
        <path d="M21.1874 9.66633C21.3737 9.61168 21.4804 9.41635 21.4258 9.23002C20.8406 7.2353 19.602 5.44036 17.9382 4.17577C16.2188 2.86894 14.1654 2.17814 12 2.17814C6.58429 2.17814 2.17822 6.58421 2.17822 12C2.17822 14.3314 3.00936 16.5916 4.51865 18.3642C4.58821 18.4458 4.68707 18.4878 4.78654 18.4878C4.86711 18.4878 4.94811 18.4603 5.01425 18.4039C5.16205 18.278 5.17986 18.0562 5.05405 17.9083C3.72899 16.3521 2.96736 14.3908 2.88857 12.3516H10.7502C10.8724 12.7854 11.2146 13.1276 11.6485 13.2498V17.2087C11.6485 17.4028 11.8058 17.5602 12 17.5602C12.1942 17.5602 12.3516 17.4028 12.3516 17.2087V13.2498C12.8973 13.0961 13.2986 12.5942 13.2986 12C13.2986 11.8893 13.2846 11.7819 13.2584 11.6793L20.067 7.74844C20.3477 8.27757 20.5783 8.83908 20.7511 9.42793C20.8057 9.61426 21.0009 9.72113 21.1874 9.66633ZM12 12.5955C11.6717 12.5955 11.4046 12.3283 11.4046 12C11.4046 11.6717 11.6717 11.4046 12 11.4046C12.3284 11.4046 12.5955 11.6717 12.5955 12C12.5955 12.3283 12.3284 12.5955 12 12.5955ZM12.906 11.0709C12.6718 10.8425 12.3522 10.7014 12 10.7014C11.7695 10.7014 11.5529 10.7621 11.3651 10.8679L9.23521 8.73802C9.09791 8.60072 8.87535 8.60072 8.738 8.73802C8.60071 8.87532 8.60071 9.09793 8.738 9.23518L10.8679 11.3651C10.818 11.4537 10.7783 11.5486 10.7502 11.6484H2.88875C3.07424 6.78272 7.08974 2.88127 12 2.88127C15.1661 2.88127 18.0696 4.55002 19.7136 7.14066L12.906 11.0709Z" fill="#FB9805"/>
        <path d="M12 3.78811C11.8058 3.78811 11.6484 3.94552 11.6484 4.13967V5.08669C11.6484 5.28084 11.8058 5.43825 12 5.43825C12.1942 5.43825 12.3516 5.28084 12.3516 5.08669V4.13967C12.3516 3.94552 12.1942 3.78811 12 3.78811Z" fill="#FB9805"/>
        <path d="M8.37433 5.01698C8.27729 4.8488 8.06219 4.79123 7.89409 4.88831C7.72595 4.98539 7.66834 5.20041 7.76542 5.36855L8.23895 6.18872C8.30406 6.3015 8.42223 6.36455 8.54373 6.36455C8.60336 6.36455 8.66387 6.34936 8.71919 6.31739C8.88733 6.22031 8.94494 6.0053 8.84786 5.83716L8.37433 5.01698Z" fill="#FB9805"/>
        <path d="M6.18887 8.23889L5.3687 7.76536C5.20042 7.66824 4.9855 7.72589 4.88847 7.89403C4.79139 8.06217 4.849 8.27719 5.01714 8.37426L5.83731 8.84779C5.89271 8.87976 5.95314 8.89495 6.01276 8.89495C6.13426 8.89495 6.25243 8.83186 6.31754 8.71912C6.41467 8.55098 6.35701 8.33597 6.18887 8.23889Z" fill="#FB9805"/>
        <path d="M5.83731 15.1522L5.01714 15.6257C4.849 15.7228 4.79139 15.9378 4.88847 16.106C4.95358 16.2187 5.07175 16.2818 5.19325 16.2818C5.25287 16.2818 5.31339 16.2666 5.3687 16.2346L6.18887 15.7611C6.35701 15.664 6.41462 15.449 6.31754 15.2809C6.22051 15.1126 6.00536 15.0551 5.83731 15.1522Z" fill="#FB9805"/>
        <path d="M8.23895 17.8113L7.76542 18.6315C7.66834 18.7996 7.72595 19.0147 7.89409 19.1117C7.9495 19.1437 8.00992 19.1589 8.06955 19.1589C8.19105 19.1589 8.30922 19.0958 8.37433 18.9831L8.84786 18.1629C8.94494 17.9947 8.88733 17.7797 8.71919 17.6827C8.55095 17.5855 8.33594 17.6431 8.23895 17.8113Z" fill="#FB9805"/>
        <path d="M12 18.5618C11.8058 18.5618 11.6484 18.7192 11.6484 18.9133V19.8603C11.6484 20.0545 11.8058 20.2119 12 20.2119C12.1942 20.2119 12.3516 20.0545 12.3516 19.8603V18.9133C12.3516 18.7192 12.1942 18.5618 12 18.5618Z" fill="#FB9805"/>
        <path d="M18.9133 11.6484C18.7191 11.6484 18.5618 11.8058 18.5618 12C18.5618 12.1942 18.7191 12.3516 18.9133 12.3516H19.8603C20.0545 12.3516 20.2119 12.1942 20.2119 12C20.2119 11.8058 20.0545 11.6484 19.8603 11.6484H18.9133Z" fill="#FB9805"/>
        <path d="M16.1059 4.88831C15.9377 4.79119 15.7227 4.8488 15.6257 5.01699L15.1521 5.83716C15.0551 6.0053 15.1127 6.22031 15.2808 6.31739C15.3362 6.34936 15.3966 6.36455 15.4563 6.36455C15.5778 6.36455 15.6959 6.30146 15.761 6.18872L16.2346 5.36855C16.3316 5.20036 16.274 4.98535 16.1059 4.88831Z" fill="#FB9805"/>
        <path d="M18.6291 17.2983C17.8952 17.2983 17.2981 17.8953 17.2981 18.6292C17.2981 19.3631 17.8951 19.9601 18.6291 19.9601C19.3629 19.9601 19.96 19.3631 19.96 18.6292C19.96 17.8953 19.3629 17.2983 18.6291 17.2983ZM18.6291 19.257C18.2829 19.257 18.0012 18.9754 18.0012 18.6292C18.0012 18.283 18.2829 18.0014 18.6291 18.0014C18.9752 18.0014 19.2569 18.283 19.2569 18.6292C19.2569 18.9754 18.9752 19.257 18.6291 19.257Z" fill="#FB9805"/>
        <path d="M23.7053 17.5069L22.7437 17.3493C23.5667 15.6968 24 13.858 24 12C24 8.79473 22.7518 5.78128 20.4853 3.51473C18.2188 1.24819 15.2053 0 12 0C9.1343 0 6.36005 1.02656 4.18833 2.89064C4.04095 3.01711 4.02408 3.23906 4.1505 3.38639C4.27692 3.53372 4.49888 3.55064 4.64625 3.42417C6.69056 1.6695 9.30216 0.703125 12 0.703125C18.2291 0.703125 23.2969 5.77087 23.2969 12C23.2969 13.0969 23.1363 14.1865 22.8258 15.2303L21.8787 14.2832C21.7975 14.202 21.6851 14.1683 21.5777 14.1844C21.7398 13.4714 21.8218 12.74 21.8218 12C21.8218 11.6348 21.8015 11.2666 21.7615 10.9056C21.7402 10.7126 21.5661 10.5735 21.3734 10.5949C21.1804 10.6163 21.0413 10.7901 21.0627 10.9831C21.0998 11.3184 21.1187 11.6606 21.1187 12C21.1187 12.9488 20.9736 13.8819 20.6881 14.7756L20.3721 15.0026C20.2383 14.938 20.1009 14.881 19.961 14.8317L19.7514 13.5531C19.7235 13.3831 19.5766 13.2584 19.4045 13.2584H17.8538C17.6816 13.2584 17.5348 13.3831 17.5069 13.5531L17.2973 14.8317C17.1574 14.8809 17.0201 14.938 16.8862 15.0026L15.8333 14.2463C15.6934 14.1458 15.5014 14.1614 15.3796 14.2832L14.2832 15.3797C14.1614 15.5015 14.1458 15.6935 14.2463 15.8334L15.0026 16.8863C14.938 17.0201 14.8809 17.1575 14.8318 17.2973L13.5531 17.5069C13.3831 17.5348 13.2584 17.6817 13.2584 17.8538V19.4045C13.2584 19.5767 13.3831 19.7236 13.5531 19.7514L14.8317 19.961C14.8809 20.1008 14.938 20.2382 15.0026 20.3721L14.7755 20.6881C13.8818 20.9736 12.9487 21.1187 12 21.1187C9.876 21.1187 7.80811 20.3726 6.17719 19.0179C6.02794 18.8939 5.80622 18.9143 5.68209 19.0638C5.55806 19.2131 5.57855 19.4348 5.72794 19.5589C7.48477 21.0182 9.71227 21.8219 12 21.8219C12.74 21.8219 13.4714 21.7398 14.1844 21.5778C14.1683 21.6851 14.202 21.7975 14.2832 21.8787L15.2303 22.8258C14.1866 23.1363 13.0969 23.2969 12 23.2969C5.77087 23.2969 0.703125 18.2291 0.703125 12C0.703125 9.25214 1.70142 6.60375 3.51413 4.54275C3.64233 4.39697 3.62813 4.17483 3.4823 4.04658C3.33647 3.91833 3.11428 3.93258 2.98612 4.07841C1.0605 6.26784 0 9.08109 0 12C0 15.2053 1.24823 18.2187 3.51473 20.4853C5.78123 22.7518 8.79473 24 12 24C13.858 24 15.6968 23.5667 17.3493 22.7437L17.507 23.7053C17.5349 23.8752 17.6817 24 17.8539 24H19.4045C19.5767 24 19.7236 23.8753 19.7514 23.7053L19.9611 22.4266C20.1009 22.3774 20.2382 22.3203 20.3721 22.2558L21.4251 23.0121C21.5648 23.1125 21.7569 23.0969 21.8788 22.9751L22.9753 21.8786C23.097 21.7568 23.1127 21.5648 23.0122 21.4249L22.2559 20.372C22.3204 20.2382 22.3775 20.1008 22.4267 19.961L23.7053 19.7514C23.8753 19.7235 24 19.5766 24 19.4045V17.8538C24 17.6816 23.8753 17.5348 23.7053 17.5069ZM23.2969 19.1059L22.1008 19.302C21.9669 19.3239 21.8576 19.4209 21.8199 19.5512C21.7516 19.7871 21.6564 20.0161 21.537 20.232C21.4712 20.3508 21.4798 20.4969 21.559 20.6073L22.2669 21.5926L21.5927 22.2668L20.6073 21.559C20.497 21.4798 20.3509 21.4711 20.2319 21.537C20.0161 21.6564 19.7871 21.7517 19.5512 21.8199C19.421 21.8576 19.3239 21.9669 19.302 22.1007L19.1059 23.2969H18.1525L17.9564 22.1008C17.9345 21.9669 17.8375 21.8576 17.7072 21.8199C17.4714 21.7517 17.2424 21.6565 17.0265 21.537C16.9076 21.4711 16.7615 21.4798 16.6511 21.559L15.6657 22.2668L14.9915 21.5927L15.6994 20.6073C15.7786 20.497 15.7872 20.3508 15.7214 20.232C15.6019 20.016 15.5067 19.787 15.4385 19.5513C15.4008 19.421 15.2915 19.324 15.1576 19.302L13.9615 19.106V18.1525L15.1576 17.9565C15.2915 17.9345 15.4008 17.8375 15.4385 17.7072C15.5067 17.4715 15.6019 17.2425 15.7214 17.0265C15.7872 16.9076 15.7786 16.7615 15.6994 16.6512L14.9915 15.6658L15.6657 14.9917L16.6511 15.6995C16.7614 15.7787 16.9076 15.7874 17.0265 15.7215C17.2423 15.602 17.4713 15.5068 17.7073 15.4385C17.8375 15.4008 17.9345 15.2915 17.9564 15.1577L18.1525 13.9616H19.1059L19.302 15.1577C19.3239 15.2915 19.4209 15.4008 19.5511 15.4385C19.7871 15.5068 20.0161 15.602 20.2319 15.7215C20.3506 15.7873 20.4969 15.7787 20.6072 15.6995L21.5926 14.9917L22.2668 15.6658L21.559 16.6512C21.4798 16.7615 21.4711 16.9077 21.537 17.0265C21.6564 17.2424 21.7516 17.4714 21.8199 17.7073C21.8576 17.8375 21.9669 17.9345 22.1007 17.9564L23.2969 18.1525V19.1059Z" fill="#FB9805"/>
        <path d="M18.6292 15.9924C17.1753 15.9924 15.9924 17.1753 15.9924 18.6292C15.9924 20.083 17.1753 21.2659 18.6292 21.2659C20.0831 21.2659 21.266 20.083 21.266 18.6292C21.266 17.1753 20.0831 15.9924 18.6292 15.9924ZM18.6292 20.5628C17.563 20.5628 16.6956 19.6954 16.6956 18.6292C16.6956 17.563 17.563 16.6956 18.6292 16.6956C19.6954 16.6956 20.5628 17.563 20.5628 18.6292C20.5628 19.6954 19.6954 20.5628 18.6292 20.5628Z" fill="#FB9805"/>
        </g>
        <defs>
        <clipPath id="clip0">
        <rect width="24" height="24" fill="white"/>
        </clipPath>
        </defs>
     </symbol>
      
      <symbol id="top_icon__3" viewBox="0 0 24 24">
        <g clip-path="url(#clip0)">
        <path d="M0.351562 17.5234C0.545654 17.5234 0.703125 17.3661 0.703125 17.1718V6.93237H21.4748V10.7968C21.4748 10.9911 21.6323 11.1484 21.8264 11.1484C22.0206 11.1484 22.1779 10.9911 22.1779 10.7968V3.84888C22.1779 2.67023 21.219 1.7113 20.0405 1.7113H19.1186V1.27588C19.1186 0.804932 18.7355 0.421875 18.2646 0.421875H17.6115C17.1407 0.421875 16.7576 0.804932 16.7576 1.27588V1.7113H14.426V1.27588C14.426 0.804932 14.0429 0.421875 13.572 0.421875H12.9188C12.4481 0.421875 12.065 0.804932 12.065 1.27588V1.7113H9.73315V1.27588C9.73315 0.804932 9.3501 0.421875 8.87915 0.421875H8.2262C7.75525 0.421875 7.37219 0.804932 7.37219 1.27588V1.7113H5.04053V1.27588C5.04053 0.804932 4.65747 0.421875 4.18652 0.421875H3.53357C3.06262 0.421875 2.67957 0.804932 2.67957 1.27588V1.7113H2.13757C0.958923 1.7113 0 2.67023 0 3.84888V17.1718C0 17.3661 0.157471 17.5234 0.351562 17.5234ZM17.4608 1.27588C17.4608 1.19275 17.5285 1.125 17.6116 1.125H18.2648C18.3479 1.125 18.4155 1.19275 18.4155 1.27588V2.98389C18.4155 3.06702 18.3479 3.13477 18.2648 3.13477H17.6116C17.5285 3.13477 17.4608 3.0672 17.4608 2.98389V1.27588ZM12.7681 1.27588C12.7681 1.19275 12.8357 1.125 12.9188 1.125H13.572C13.6551 1.125 13.7228 1.19275 13.7228 1.27588V2.98389C13.7228 3.06702 13.6551 3.13477 13.572 3.13477H12.9188C12.8357 3.13477 12.7681 3.0672 12.7681 2.98389V1.27588ZM8.07532 1.27588C8.07532 1.19275 8.14307 1.125 8.2262 1.125H8.87933C8.96246 1.125 9.03021 1.19275 9.03021 1.27588V2.98389C9.03021 3.06702 8.96246 3.13477 8.87933 3.13477H8.2262C8.14307 3.13477 8.07532 3.0672 8.07532 2.98389V1.27588ZM3.38269 1.27588C3.38269 1.19275 3.45044 1.125 3.53357 1.125H4.18671C4.26984 1.125 4.3374 1.19275 4.3374 1.27588V2.98389C4.3374 3.06702 4.26984 3.13477 4.18671 3.13477H3.53357C3.45044 3.13477 3.38269 3.0672 3.38269 2.98389V1.27588ZM2.13757 2.41443H2.67957V2.98389C2.67957 3.45483 3.06262 3.83789 3.53357 3.83789H4.18671C4.65747 3.83789 5.04053 3.45483 5.04053 2.98389V2.41443H7.37238V2.98389C7.37238 3.45483 7.75543 3.83789 8.2262 3.83789H8.87933C9.35028 3.83789 9.73334 3.45483 9.73334 2.98389V2.41443H12.065V2.98389C12.065 3.45483 12.4481 3.83789 12.919 3.83789H13.5721C14.0429 3.83789 14.426 3.45483 14.426 2.98389V2.41443H16.7576V2.98389C16.7576 3.45483 17.1407 3.83789 17.6116 3.83789H18.2648C18.7355 3.83789 19.1186 3.45483 19.1186 2.98389V2.41443H20.0405C20.8315 2.41443 21.475 3.05786 21.475 3.84888V6.22925H0.703125V3.84888C0.703125 3.05786 1.34656 2.41443 2.13757 2.41443Z" fill="#FB9805"/>
        <path d="M3.98016 20.7929H0.914612C0.797974 20.7929 0.703125 20.6981 0.703125 20.5814V18.774C0.703125 18.5797 0.545654 18.4224 0.351562 18.4224C0.157471 18.4224 0 18.5797 0 18.774V20.5814C0 21.0857 0.410339 21.496 0.914612 21.496H3.98016C4.17426 21.496 4.33173 21.3386 4.33173 21.1445C4.33173 20.9502 4.17426 20.7929 3.98016 20.7929Z" fill="#FB9805"/>
        <path d="M3.96838 7.95758H2.74634C2.55225 7.95758 2.39478 8.11505 2.39478 8.30914C2.39478 8.50342 2.55225 8.66071 2.74634 8.66071H3.96838C4.16248 8.66071 4.31995 8.50342 4.31995 8.30914C4.31995 8.11505 4.16248 7.95758 3.96838 7.95758Z" fill="#FB9805"/>
        <path d="M6.50195 8.66071H7.724C7.91809 8.66071 8.07556 8.50342 8.07556 8.30914C8.07556 8.11505 7.91809 7.95758 7.724 7.95758H6.50195C6.30786 7.95758 6.15039 8.11505 6.15039 8.30914C6.15039 8.50342 6.30786 8.66071 6.50195 8.66071Z" fill="#FB9805"/>
        <path d="M10.2573 8.66071H11.4792C11.6733 8.66071 11.8307 8.50342 11.8307 8.30914C11.8307 8.11505 11.6733 7.95758 11.4792 7.95758H10.2573C10.063 7.95758 9.90576 8.11505 9.90576 8.30914C9.90576 8.50342 10.063 8.66071 10.2573 8.66071Z" fill="#FB9805"/>
        <path d="M14.0127 8.66071H15.2347C15.4288 8.66071 15.5863 8.50342 15.5863 8.30914C15.5863 8.11505 15.4288 7.95758 15.2347 7.95758H14.0127C13.8186 7.95758 13.6611 8.11505 13.6611 8.30914C13.6611 8.50342 13.8186 8.66071 14.0127 8.66071Z" fill="#FB9805"/>
        <path d="M18.9902 7.95758H17.7683C17.574 7.95758 17.4167 8.11505 17.4167 8.30914C17.4167 8.50342 17.574 8.66071 17.7683 8.66071H18.9902C19.1843 8.66071 19.3417 8.50342 19.3417 8.30914C19.3417 8.11505 19.1843 7.95758 18.9902 7.95758Z" fill="#FB9805"/>
        <path d="M3.96838 9.72546H2.74634C2.55225 9.72546 2.39478 9.88275 2.39478 10.077C2.39478 10.2713 2.55225 10.4286 2.74634 10.4286H3.96838C4.16248 10.4286 4.31995 10.2713 4.31995 10.077C4.31995 9.88275 4.16248 9.72546 3.96838 9.72546Z" fill="#FB9805"/>
        <path d="M6.50195 10.4286H7.724C7.91809 10.4286 8.07556 10.2713 8.07556 10.077C8.07556 9.88275 7.91809 9.72546 7.724 9.72546H6.50195C6.30786 9.72546 6.15039 9.88275 6.15039 10.077C6.15039 10.2713 6.30786 10.4286 6.50195 10.4286Z" fill="#FB9805"/>
        <path d="M10.2573 10.4286H11.4792C11.6733 10.4286 11.8307 10.2713 11.8307 10.077C11.8307 9.88275 11.6733 9.72546 11.4792 9.72546H10.2573C10.063 9.72546 9.90576 9.88275 9.90576 10.077C9.90576 10.2713 10.063 10.4286 10.2573 10.4286Z" fill="#FB9805"/>
        <path d="M14.0127 10.4286H15.2347C15.4288 10.4286 15.5863 10.2713 15.5863 10.077C15.5863 9.88275 15.4288 9.72546 15.2347 9.72546H14.0127C13.8186 9.72546 13.6611 9.88275 13.6611 10.077C13.6611 10.2713 13.8186 10.4286 14.0127 10.4286Z" fill="#FB9805"/>
        <path d="M18.9902 9.72546H17.7683C17.574 9.72546 17.4167 9.88275 17.4167 10.077C17.4167 10.2713 17.574 10.4286 17.7683 10.4286H18.9902C19.1843 10.4286 19.3417 10.2713 19.3417 10.077C19.3417 9.88275 19.1843 9.72546 18.9902 9.72546Z" fill="#FB9805"/>
        <path d="M6.51058 17.3304L8.3182 19.138C8.57967 19.3995 8.92721 19.5434 9.29708 19.5434C9.66695 19.5434 10.0147 19.3995 10.276 19.138L15.2262 14.1877C15.766 13.6479 15.766 12.7696 15.2262 12.2298C14.6864 11.69 13.8081 11.69 13.2683 12.2298L9.29708 16.201L8.46835 15.3724C7.92873 14.8326 7.05038 14.8326 6.5104 15.3724C5.97079 15.9122 5.97079 16.7906 6.51058 17.3304ZM7.00771 15.8696C7.14046 15.7368 7.31496 15.6703 7.48946 15.6703C7.66396 15.6703 7.83846 15.7368 7.97121 15.8696L9.04842 16.9468C9.18575 17.0841 9.40823 17.0841 9.54556 16.9468L13.7654 12.7271C14.0313 12.4614 14.4634 12.4614 14.7289 12.7269C14.9946 12.9926 14.9946 13.4249 14.7289 13.6906L9.77883 18.6407C9.65011 18.7694 9.47909 18.8403 9.29708 18.8403C9.11507 18.8403 8.94405 18.7694 8.81533 18.6407L7.00771 16.8331C6.74203 16.5674 6.74203 16.1353 7.00771 15.8696Z" fill="#FB9805"/>
        <path d="M22.178 15.2043V12.399C22.178 12.2047 22.0208 12.0474 21.8265 12.0474C21.6324 12.0474 21.4749 12.2047 21.4749 12.399V14.7559C20.8339 14.4236 20.1064 14.2355 19.3359 14.2355C16.764 14.2355 14.6716 16.3279 14.6716 18.8998C14.6716 19.5734 14.8154 20.2139 15.0734 20.7929H5.58228C5.38818 20.7929 5.23071 20.9502 5.23071 21.1445C5.23071 21.3386 5.38818 21.496 5.58228 21.496H15.4628C16.3009 22.7424 17.7242 23.564 19.3359 23.564C21.9078 23.564 24.0001 21.4717 24.0001 18.8998C24.0001 17.3969 23.2853 16.0578 22.178 15.2043ZM19.3359 22.8609C17.1516 22.8609 15.3748 21.084 15.3748 18.8998C15.3748 16.7155 17.1518 14.9387 19.3359 14.9387C21.52 14.9387 23.297 16.7155 23.297 18.8998C23.297 21.084 21.52 22.8609 19.3359 22.8609Z" fill="#FB9805"/>
        <path d="M19.3358 15.4466C17.4316 15.4466 15.8826 16.9958 15.8826 18.8998C15.8826 20.8039 17.4316 22.353 19.3358 22.353C21.2399 22.353 22.7888 20.8039 22.7888 18.8998C22.7888 16.9958 21.2397 15.4466 19.3358 15.4466ZM19.6505 21.6312C19.6738 21.5841 19.6873 21.5314 19.6873 21.4753V21.0471C19.6873 20.853 19.5298 20.6955 19.3358 20.6955C19.1417 20.6955 18.9842 20.853 18.9842 21.0471V21.4753C18.9842 21.5314 18.9976 21.5841 19.021 21.6312C17.7557 21.4863 16.7492 20.4798 16.6044 19.2145C16.6512 19.238 16.7042 19.2513 16.7602 19.2513H17.1883C17.3826 19.2513 17.5399 19.0941 17.5399 18.8998C17.5399 18.7055 17.3826 18.5482 17.1883 18.5482H16.7602C16.7042 18.5482 16.6512 18.5618 16.6044 18.585C16.7492 17.3198 17.7557 16.3132 19.021 16.1684C18.9976 16.2155 18.9842 16.2682 18.9842 16.3242V16.7525C18.9842 16.9468 19.1417 17.1041 19.3358 17.1041C19.5298 17.1041 19.6873 16.9468 19.6873 16.7525V16.3242C19.6873 16.2682 19.6738 16.2155 19.6505 16.1684C20.9158 16.3132 21.9223 17.3198 22.0671 18.585C22.0201 18.5618 21.9673 18.5482 21.9113 18.5482H21.483C21.2889 18.5482 21.1315 18.7055 21.1315 18.8998C21.1315 19.0941 21.2889 19.2513 21.483 19.2513H21.9113C21.9673 19.2513 22.0201 19.238 22.0671 19.2145C21.9221 20.4798 20.9158 21.4863 19.6505 21.6312Z" fill="#FB9805"/>
        <path d="M20.1106 18.5482H19.6873V18.1877C19.6873 17.9936 19.5298 17.8361 19.3357 17.8361C19.1414 17.8361 18.9841 17.9936 18.9841 18.1877V18.8998C18.9841 19.0941 19.1414 19.2513 19.3357 19.2513H20.1106C20.3047 19.2513 20.4622 19.0941 20.4622 18.8998C20.4622 18.7055 20.3047 18.5482 20.1106 18.5482Z" fill="#FB9805"/>
        </g>
        <defs>
        <clipPath id="clip0">
        <rect width="24" height="24" fill="white"/>
        </clipPath>
        </defs>
     </symbol>

      <symbol id="showroom" viewBox="0 0 16 14">
        <path d="M1.25 5.40625C1.92309 5.40625 2.46875 4.86059 2.46875 4.1875V3.375H0.03125V4.1875C0.03125 4.86059 0.576906 5.40625 1.25 5.40625Z"/>
        <path d="M4.625 5.40625C5.29809 5.40625 5.84375 4.86059 5.84375 4.1875V3.375H3.40625V4.1875C3.40625 4.86059 3.95191 5.40625 4.625 5.40625Z"/>
        <path d="M8 5.40625C8.67309 5.40625 9.21875 4.86059 9.21875 4.1875V3.375H6.78125V4.1875C6.78125 4.86059 7.32691 5.40625 8 5.40625Z"/>
        <path d="M11.375 5.40625C12.0481 5.40625 12.5938 4.86059 12.5938 4.1875V3.375H10.1562V4.1875C10.1562 4.86059 10.7019 5.40625 11.375 5.40625Z"/>
        <path d="M13.5312 4.1875C13.5312 4.86059 14.0769 5.40625 14.75 5.40625C15.4231 5.40625 15.9688 4.86059 15.9688 4.1875V3.375H13.5312V4.1875Z"/>
        <path d="M8.625 8.0625H12.6875V10.5625H8.625V8.0625Z"/>
        <path d="M3.3125 14H5.5V11.1875H5.03125C4.77237 11.1875 4.5625 10.9776 4.5625 10.7188C4.5625 10.4599 4.77237 10.25 5.03125 10.25H5.5V8.0625H3.3125V14Z"/>
        <path d="M15.5312 13.0624H15.0625V6.32059C14.9605 6.33566 14.8562 6.34366 14.75 6.34366C14.0672 6.34366 13.4579 6.02422 13.0625 5.52734C12.6671 6.02422 12.0578 6.34366 11.375 6.34366C10.6922 6.34366 10.0829 6.02422 9.6875 5.52734C9.29212 6.02422 8.68284 6.34366 8 6.34366C7.31716 6.34366 6.70788 6.02422 6.3125 5.52734C5.91712 6.02422 5.30784 6.34366 4.625 6.34366C3.94216 6.34366 3.33288 6.02422 2.9375 5.52734C2.54212 6.02422 1.93284 6.34366 1.25 6.34366C1.14384 6.34366 1.03953 6.33566 0.9375 6.32059V13.0624H0.46875C0.209875 13.0624 0 13.2723 0 13.5312C0 13.79 0.209875 13.9999 0.46875 13.9999H2.375V7.59366C2.375 7.33478 2.58488 7.12491 2.84375 7.12491H5.96875C6.22762 7.12491 6.4375 7.33478 6.4375 7.59366V13.9999H15.5312C15.7901 13.9999 16 13.79 16 13.5312C16 13.2723 15.7901 13.0624 15.5312 13.0624ZM13.625 11.0312C13.625 11.29 13.4151 11.4999 13.1562 11.4999H8.15625C7.89738 11.4999 7.6875 11.29 7.6875 11.0312V7.59366C7.6875 7.33478 7.89738 7.12491 8.15625 7.12491H13.1562C13.4151 7.12491 13.625 7.33478 13.625 7.59366V11.0312Z"/>
        <path d="M1 0H15L16 3H0L1 0Z"/>
     </symbol>

     <symbol id="playico" viewBox="0 0 30 36">
         <path d="M30 18L-1.63133e-06 35.3205L-1.17124e-07 0.67949L30 18Z" fill="white"/>    
     </symbol>

     <symbol id="zoom" viewBox="0 0 512 512">
     	<g>
		<path d="M496.64,424.96l-71.68-71.68c23.04-35.84,35.84-76.8,35.84-122.88C460.8,102.4,358.4,0,230.4,0S0,102.4,0,230.4
			s102.4,230.4,230.4,230.4c46.08,0,87.04-12.8,122.88-35.84l71.68,71.68c20.48,20.48,51.2,20.48,71.68,0
			C517.12,476.16,517.12,445.44,496.64,424.96z M230.4,409.6c-99.84,0-179.2-79.36-179.2-179.2S130.56,51.2,230.4,51.2
			s179.2,79.36,179.2,179.2S327.68,409.6,230.4,409.6z"/>
	</g>

	<g>
		<path d="M332.8,204.8H256V128c0-15.36-10.24-25.6-25.6-25.6c-15.36,0-25.6,12.8-25.6,25.6v76.8H128c-12.8,0-25.6,10.24-25.6,25.6
			c0,15.36,10.24,25.6,25.6,25.6h76.8v76.8c0,15.36,10.24,25.6,25.6,25.6c15.36,0,25.6-10.24,25.6-25.6V256h76.8
			c15.36,0,25.6-10.24,25.6-25.6C358.4,215.04,345.6,204.8,332.8,204.8z"/>
	</g>
     </symbol>
     <symbol id="arrow_down" viewBox="0 0 10 6" fill="none">
        <path d="M1 1L4.78947 5L9 1" stroke="black" stroke-linecap="round" stroke-linejoin="round"/>
     </symbol>
    



</svg>